<svg xmlns="http://www.w3.org/2000/svg" viewBox="0 0 462.2 462.2">
  <path fill="currentColor" d="M449.56 235.01a50.2 50.2 0 00-40.51-30.23l-70.54-8.06-37.63-61.16a52.87 52.87 0 00-45.03-25.17h-121.5a70.35 70.35 0 00-67.83 51.68l-.95 3.45a57.35 57.35 0 01-39.74 39.99 24.23 24.23 0 00-17.66 23.31v67.88l38.4-8.98a53.97 53.97 0 0149.35-32.42 53.92 53.92 0 0149.34 32.42h163.08c.79-1.86 1.7-3.67 2.7-5.43a53.95 53.95 0 0146.65-26.99 53.92 53.92 0 0149.33 32.42h42.82l.27.03 3.12-27.4a49.95 49.95 0 00-3.67-25.34z"/>
  <path fill="#ccc" d="M303.93 309.06a51 51 0 00.08 2.78H149.6a53.55 53.55 0 00-4.34-24.12h163.08a53.82 53.82 0 00-4.41 21.34z"/>
  <path fill="#ccc" d="M462.2 299.8c0 6.65-5.4 12.04-12.05 12.04h-38.8a53.55 53.55 0 00-4.34-24.12l43.15.02c6.65 0 12.04 5.4 12.04 12.05z"/>
  <path fill="#ccc" d="M42.17 309.06c0 .93.03 1.86.08 2.78H12.06a12.06 12.06 0 110-24.12h34.52a53.75 53.75 0 00-4.41 21.34zM256.24 229.63h-15.76a6 6 0 010-12h15.76a6 6 0 010 12zM148.02 229.63h-15.76a6 6 0 010-12h15.76a6 6 0 010 12z"/>
  <path fill="#444" d="M400.44 309.06a42.75 42.75 0 11-85.5 0 42.75 42.75 0 0185.5 0zm-25.22 0c0-9.67-7.86-17.54-17.53-17.54-9.68 0-17.54 7.87-17.54 17.54s7.86 17.54 17.54 17.54c9.67 0 17.53-7.87 17.53-17.54z"/>
  <path fill="#444" d="M138.59 311.84a42.75 42.75 0 11-85.32-5.56 42.75 42.75 0 0185.32 5.56zm-25.12-2.78c0-9.67-7.87-17.54-17.54-17.54-9.68 0-17.54 7.87-17.54 17.54s7.86 17.54 17.54 17.54c9.67 0 17.54-7.87 17.54-17.54z"/>
  <path fill="#e6e6e6" d="M357.69 291.52c9.67 0 17.53 7.87 17.53 17.54s-7.86 17.54-17.53 17.54a17.56 17.56 0 01-17.54-17.54c0-9.67 7.86-17.54 17.54-17.54z"/>
  <path fill="#e6e6e6" d="M95.93 291.52c9.67 0 17.54 7.87 17.54 17.54s-7.87 17.54-17.54 17.54a17.56 17.56 0 01-17.54-17.54c0-9.67 7.86-17.54 17.54-17.54z"/>
  <path fill="#fff" d="M453.5 257.01h-12.05a22 22 0 01-22-22h30.1c3.32 7.24 4.82 14.36 3.95 22z"/>
  <path fill="#d0e2e2" d="M115.97 138.39v58.33H82.5s3.9-15.83 6.37-24.79l.95-3.45a46.3 46.3 0 0126.15-30.09zM200.03 134.55v62.17h-69.06v-62.04c1.12-.09 2.25-.13 3.38-.13h65.68zM310.14 196.72h-95.11v-62.17h40.82a28.9 28.9 0 0124.45 13.67l29.84 48.5z"/>
  <path fill="#e5ecec" d="M200.03 134.68v62.04H193l-62.03-62.04zM310.14 196.72H277.2l-62.17-62.17h40.82a28.9 28.9 0 0124.45 13.67l29.84 48.5zM115.97 138.39v49.1l-24.33-24.33a46.3 46.3 0 0124.33-24.77z"/>
</svg>