<svg height="512" viewBox="0 0 64 64" width="512" xmlns="http://www.w3.org/2000/svg"><rect fill="#394d5c" height="36" rx="2" width="58" x="3" y="14"/><path d="m7 18h50v28h-50z" fill="#f4f4e6"/><g fill="#7d8d9c"><path d="m12 21h4v2h-4z"/><path d="m12 41h4v2h-4z"/><path d="m48 21h4v2h-4z"/><path d="m48 41h4v2h-4z"/></g><path d="m17 39h-6a1 1 0 0 1 -1-1v-12a1 1 0 0 1 1-1h6a1 1 0 0 1 1 1v12a1 1 0 0 1 -1 1zm-5-2h4v-10h-4z" fill="#de463e"/><path d="m53 39h-6a1 1 0 0 1 -1-1v-12a1 1 0 0 1 1-1h6a1 1 0 0 1 1 1v12a1 1 0 0 1 -1 1zm-5-2h4v-10h-4z" fill="#394d5c"/><path d="m25 37v-11a1 1 0 0 0 -1-1h-2a1 1 0 0 0 -.707.293l-2 2 1.414 1.414 1.707-1.707h.586v10h-2v2h6v-2z" fill="#de463e"/><path d="m31 39h-2v-13a1 1 0 0 1 1-1h5a1 1 0 0 1 1 1v6a1 1 0 0 1 -1 1h-4zm0-8h3v-4h-3z" fill="#394d5c"/><path d="m45 27v-2h-6a1 1 0 0 0 -1 1v13h2v-8h4v-2h-4v-2z" fill="#394d5c"/><path d="m20 21h2v2h-2z" fill="#7d8d9c"/><path d="m34 41h2v2h-2z" fill="#7d8d9c"/></svg>