<svg xmlns="http://www.w3.org/2000/svg" width="152.192" height="173.518" viewBox="0 0 152.192 173.518">
  <g id="Group_318" data-name="Group 318" transform="translate(-80.609 -50.501)">
    <g id="Device" transform="translate(80.609 50.501)">
      <path id="Path_104" data-name="Path 104" d="M84.262,223.5l-1.479-.854a4.807,4.807,0,0,1-2.174-3.767V89.294a4.808,4.808,0,0,1,2.174-3.767l59.765-34.506a4.808,4.808,0,0,1,4.349,0l1.48.855a4.807,4.807,0,0,1,2.175,3.767V185.227a4.807,4.807,0,0,1-2.175,3.767L88.611,223.5A4.806,4.806,0,0,1,84.262,223.5Z" transform="translate(-80.609 -50.501)" fill="#37474f"/>
      <path id="Path_105" data-name="Path 105" d="M89.351,118.648l-8.106-4.68a4.449,4.449,0,0,0-.636,2.144V245.7a4.807,4.807,0,0,0,2.174,3.767l1.479.854a4.806,4.806,0,0,0,4.349,0l.74-.427Z" transform="translate(-80.609 -77.319)" fill="#263238"/>
      <path id="Path_106" data-name="Path 106" d="M90.7,95.284V224.87c0,1.386.974,1.949,2.175,1.255l59.766-34.506a4.807,4.807,0,0,0,2.175-3.767V58.268c0-1.387-.974-1.949-2.175-1.256L92.876,91.518A4.806,4.806,0,0,0,90.7,95.284Z" transform="translate(-84.873 -53.127)" fill="#455a64"/>
      <path id="Path_107" data-name="Path 107" d="M97.612,114.549l54.345-31.373c1.03-.595,1.865-.113,1.865,1.076V187.632a4.121,4.121,0,0,1-1.864,3.229L97.613,222.234c-1.03.594-1.864.113-1.864-1.076V117.777A4.121,4.121,0,0,1,97.612,114.549Z" transform="translate(-87.006 -64.2)" fill="#fafafa"/>
      <path id="Path_108" data-name="Path 108" d="M145.15,92.789c.8-.464,1.457-.088,1.457.841a3.222,3.222,0,0,1-1.457,2.524c-.8.465-1.457.088-1.457-.841A3.222,3.222,0,0,1,145.15,92.789Z" transform="translate(-107.265 -68.286)" fill="#263238"/>
      <g id="Group_300" data-name="Group 300" transform="translate(30.034 25.151)">
        <path id="Path_109" data-name="Path 109" d="M138.253,100.688c2.96-1.637,8.243-4.78,11.162-6.5.5-.291.9-.091.9.449a1.934,1.934,0,0,1-.9,1.5l-11.181,6.457c-.5.288-.9.083-.9-.456A1.85,1.85,0,0,1,138.253,100.688Z" transform="translate(-134.61 -94.057)" fill="#263238"/>
        <path id="Path_110" data-name="Path 110" d="M133.439,108.284c.452-.261.818-.049.818.472a1.809,1.809,0,0,1-.818,1.418c-.452.26-.818.049-.818-.473A1.81,1.81,0,0,1,133.439,108.284Z" transform="translate(-132.621 -100.021)" fill="#263238"/>
      </g>
      <path id="Path_111" data-name="Path 111" d="M144.084,302.438c1.609-.929,2.914-.176,2.914,1.683a6.441,6.441,0,0,1-2.914,5.048c-1.61.93-2.914.176-2.914-1.682A6.441,6.441,0,0,1,144.084,302.438Z" transform="translate(-106.199 -156.788)" fill="#263238"/>
    </g>
    <g id="Group_313" data-name="Group 313" transform="translate(155.395 53.269)">
      <g id="Group_307" data-name="Group 307" transform="translate(28.148)">
        <g id="Group_305" data-name="Group 305">
          <path id="Path_142" data-name="Path 142" d="M188.632,304.98a3.419,3.419,0,0,0-1.547-2.68l-1.26-.728a3.42,3.42,0,0,0-3.094,0L140.921,325.7a3.421,3.421,0,0,0-1.547,2.68V333.3a3.421,3.421,0,0,0,1.547,2.68l1.26.727a3.421,3.421,0,0,0,3.095,0l41.809-24.125a3.419,3.419,0,0,0,1.547-2.68Z" transform="translate(-139.374 -301.203)" fill="#37474f"/>
          <path id="Path_143" data-name="Path 143" d="M139.374,352.07a3.421,3.421,0,0,0,1.547,2.68l1.26.727a3.458,3.458,0,0,0,2.83.125c-.728.275-1.283-.136-1.283-1.018V349.66a3.161,3.161,0,0,1,.453-1.524l-4.354-2.514a3.16,3.16,0,0,0-.453,1.524Z" transform="translate(-139.374 -319.972)" fill="#263238"/>
          <path id="Path_144" data-name="Path 144" d="M188.916,304.542c-.18-.657-.779-.866-1.494-.454l-41.813,24.127a3.067,3.067,0,0,0-1.09,1.155l-4.353-2.512a3.122,3.122,0,0,1,1.09-1.155l41.805-24.127a3.441,3.441,0,0,1,3.1,0l1.263.729A3.41,3.41,0,0,1,188.916,304.542Z" transform="translate(-139.709 -301.205)" fill="#455a64"/>
        </g>
        <g id="Group_306" data-name="Group 306" transform="translate(8.21 7.782)">
          <path id="Path_145" data-name="Path 145" d="M155.06,348.886c.811-.469,1.468-.089,1.468.848a3.248,3.248,0,0,1-1.468,2.544c-.811.468-1.469.088-1.469-.848A3.245,3.245,0,0,1,155.06,348.886Z" transform="translate(-153.591 -329.049)" fill="#e6e6e6"/>
          <path id="Path_146" data-name="Path 146" d="M163.474,344.028c.811-.468,1.468-.089,1.468.848a3.246,3.246,0,0,1-1.468,2.544c-.811.468-1.469.088-1.469-.848A3.246,3.246,0,0,1,163.474,344.028Z" transform="translate(-157.146 -326.996)" fill="#e6e6e6"/>
          <path id="Path_147" data-name="Path 147" d="M171.888,339.17c.811-.468,1.469-.089,1.469.848a3.246,3.246,0,0,1-1.469,2.544c-.811.468-1.469.089-1.469-.848A3.246,3.246,0,0,1,171.888,339.17Z" transform="translate(-160.702 -324.943)" fill="#e6e6e6"/>
          <path id="Path_148" data-name="Path 148" d="M180.3,334.312c.811-.468,1.469-.089,1.469.848A3.246,3.246,0,0,1,180.3,337.7c-.811.468-1.468.089-1.468-.848A3.245,3.245,0,0,1,180.3,334.312Z" transform="translate(-164.257 -322.891)" fill="#e6e6e6"/>
          <path id="Path_149" data-name="Path 149" d="M188.717,329.454c.811-.468,1.468-.089,1.468.848a3.247,3.247,0,0,1-1.468,2.544c-.811.468-1.469.089-1.469-.848A3.246,3.246,0,0,1,188.717,329.454Z" transform="translate(-167.813 -320.838)" fill="#e6e6e6"/>
          <path id="Path_150" data-name="Path 150" d="M197.131,324.6c.811-.468,1.468-.089,1.468.848a3.247,3.247,0,0,1-1.468,2.544c-.811.468-1.469.089-1.469-.848A3.246,3.246,0,0,1,197.131,324.6Z" transform="translate(-171.368 -318.785)" fill="#e6e6e6"/>
          <path id="Path_151" data-name="Path 151" d="M205.545,319.738c.811-.468,1.469-.089,1.469.848a3.246,3.246,0,0,1-1.469,2.544c-.811.468-1.469.089-1.469-.848A3.246,3.246,0,0,1,205.545,319.738Z" transform="translate(-174.923 -316.732)" fill="#e6e6e6"/>
          <path id="Path_152" data-name="Path 152" d="M213.959,314.88c.811-.468,1.469-.089,1.469.848a3.246,3.246,0,0,1-1.469,2.544c-.811.468-1.468.089-1.468-.848A3.245,3.245,0,0,1,213.959,314.88Z" transform="translate(-178.479 -314.68)" fill="#e6e6e6"/>
        </g>
      </g>
      <g id="Group_310" data-name="Group 310" transform="translate(28.148 16.243)">
        <g id="Group_308" data-name="Group 308">
          <path id="Path_153" data-name="Path 153" d="M188.632,333.108a3.42,3.42,0,0,0-1.547-2.68l-1.26-.727a3.417,3.417,0,0,0-3.094,0l-41.81,24.125a3.42,3.42,0,0,0-1.547,2.68v4.923a3.421,3.421,0,0,0,1.547,2.68l1.26.728a3.421,3.421,0,0,0,3.095,0l41.809-24.125a3.419,3.419,0,0,0,1.547-2.68Z" transform="translate(-139.374 -329.331)" fill="#37474f"/>
          <path id="Path_154" data-name="Path 154" d="M139.374,380.2a3.42,3.42,0,0,0,1.547,2.68l1.26.728a3.46,3.46,0,0,0,2.83.125c-.728.275-1.283-.136-1.283-1.018v-4.924a3.164,3.164,0,0,1,.453-1.525l-4.354-2.514a3.162,3.162,0,0,0-.453,1.525Z" transform="translate(-139.374 -348.1)" fill="#263238"/>
          <path id="Path_155" data-name="Path 155" d="M188.916,332.671c-.18-.657-.779-.866-1.494-.455l-41.813,24.128a3.067,3.067,0,0,0-1.09,1.155l-4.353-2.512a3.122,3.122,0,0,1,1.09-1.155L183.062,329.7a3.441,3.441,0,0,1,3.1,0l1.263.729A3.41,3.41,0,0,1,188.916,332.671Z" transform="translate(-139.709 -329.333)" fill="#455a64"/>
        </g>
        <g id="Group_309" data-name="Group 309" transform="translate(8.21 7.783)">
          <path id="Path_156" data-name="Path 156" d="M155.06,377.014c.811-.468,1.468-.088,1.468.848a3.246,3.246,0,0,1-1.468,2.544c-.811.468-1.469.089-1.469-.848A3.247,3.247,0,0,1,155.06,377.014Z" transform="translate(-153.591 -357.177)" fill="#e6e6e6"/>
          <path id="Path_157" data-name="Path 157" d="M163.474,372.156c.811-.468,1.468-.088,1.468.848a3.246,3.246,0,0,1-1.468,2.544c-.811.468-1.469.088-1.469-.848A3.247,3.247,0,0,1,163.474,372.156Z" transform="translate(-157.146 -355.125)" fill="#e6e6e6"/>
          <path id="Path_158" data-name="Path 158" d="M171.888,367.3c.811-.468,1.469-.088,1.469.848a3.247,3.247,0,0,1-1.469,2.544c-.811.468-1.469.088-1.469-.848A3.247,3.247,0,0,1,171.888,367.3Z" transform="translate(-160.702 -353.072)" fill="#e6e6e6"/>
          <path id="Path_159" data-name="Path 159" d="M180.3,362.44c.811-.468,1.469-.088,1.469.848a3.247,3.247,0,0,1-1.469,2.544c-.811.468-1.468.088-1.468-.848A3.246,3.246,0,0,1,180.3,362.44Z" transform="translate(-164.257 -351.019)" fill="#e6e6e6"/>
          <path id="Path_160" data-name="Path 160" d="M188.717,357.582c.811-.468,1.468-.088,1.468.848a3.248,3.248,0,0,1-1.468,2.544c-.811.468-1.469.088-1.469-.848A3.247,3.247,0,0,1,188.717,357.582Z" transform="translate(-167.813 -348.966)" fill="#e6e6e6"/>
          <path id="Path_161" data-name="Path 161" d="M197.131,352.724c.811-.468,1.468-.088,1.468.848a3.248,3.248,0,0,1-1.468,2.544c-.811.468-1.469.088-1.469-.848A3.247,3.247,0,0,1,197.131,352.724Z" transform="translate(-171.368 -346.914)" fill="#e6e6e6"/>
          <path id="Path_162" data-name="Path 162" d="M205.545,347.867c.811-.469,1.469-.089,1.469.848a3.247,3.247,0,0,1-1.469,2.544c-.811.468-1.469.088-1.469-.848A3.245,3.245,0,0,1,205.545,347.867Z" transform="translate(-174.923 -344.861)" fill="#e6e6e6"/>
          <path id="Path_163" data-name="Path 163" d="M213.959,343.009c.811-.468,1.469-.089,1.469.848a3.247,3.247,0,0,1-1.469,2.544c-.811.468-1.468.088-1.468-.848A3.245,3.245,0,0,1,213.959,343.009Z" transform="translate(-178.479 -342.809)" fill="#e6e6e6"/>
        </g>
      </g>
      <g id="Group_312" data-name="Group 312" transform="translate(0 29.208)">
        <g id="Group_311" data-name="Group 311">
          <path id="Path_164" data-name="Path 164" d="M117.4,355.561a3.42,3.42,0,0,0-1.547-2.68l-1.26-.727a3.417,3.417,0,0,0-3.094,0l-19.32,11.174a3.419,3.419,0,0,0-1.548,2.679v21.186a3.42,3.42,0,0,0,1.548,2.68l1.259.728a3.422,3.422,0,0,0,3.095,0l19.32-11.174a3.419,3.419,0,0,0,1.547-2.68Z" transform="translate(-90.629 -351.784)" fill="#368dd8"/>
          <path id="Path_165" data-name="Path 165" d="M90.629,396.487a3.419,3.419,0,0,0,1.548,2.68l1.259.728a3.46,3.46,0,0,0,2.83.125c-.728.275-1.283-.136-1.283-1.018V377.815a3.168,3.168,0,0,1,.453-1.525l-4.354-2.514a3.16,3.16,0,0,0-.453,1.525Z" transform="translate(-90.629 -361.077)" opacity="0.2"/>
          <path id="Path_166" data-name="Path 166" d="M117.682,355.124c-.18-.657-.779-.866-1.494-.455L96.865,365.846A3.063,3.063,0,0,0,95.775,367l-4.352-2.512a3.121,3.121,0,0,1,1.09-1.155l19.316-11.177a3.441,3.441,0,0,1,3.1,0l1.263.729A3.41,3.41,0,0,1,117.682,355.124Z" transform="translate(-90.965 -351.786)" fill="#fff" opacity="0.3"/>
        </g>
        <path id="Path_167" data-name="Path 167" d="M114.617,372.329c1.859-1.074,3.366-.2,3.366,1.943a7.44,7.44,0,0,1-3.366,5.831c-1.859,1.073-3.367.2-3.367-1.943A7.439,7.439,0,0,1,114.617,372.329Z" transform="translate(-99.342 -360.271)" fill="#fafafa"/>
        <path id="Path_168" data-name="Path 168" d="M119.078,389.6c0-3.527-2.477-4.957-5.531-3.193l-1.91,1.1a12.225,12.225,0,0,0-5.53,9.579v.949c1.765.586,11.182-4.9,12.971-7.62Z" transform="translate(-97.169 -366.094)" fill="#fafafa"/>
      </g>
    </g>
    <g id="Group_317" data-name="Group 317" transform="translate(157.898 137.473)">
      <g id="Group_314" data-name="Group 314">
        <path id="Path_169" data-name="Path 169" d="M280.06,204.509l0-.006-7.044-4.066v.008c-.275-.152-.683-.05-1.177.329q-.384.294-.784.564c-.1.064-.193.122-.289.185-.173.112-.345.225-.521.33-.122.073-.248.14-.372.21-.153.086-.306.174-.461.256s-.284.141-.427.211-.282.14-.424.205-.315.137-.474.2c-.131.055-.262.112-.394.163-.171.067-.343.129-.516.19-.121.043-.241.088-.363.128-.185.062-.371.118-.558.173-.11.032-.219.066-.33.1-.2.054-.4.1-.6.151-.1.024-.2.048-.3.069-.211.047-.423.088-.635.126l-.26.046q-.337.055-.673.1l-.222.027c-.236.027-.471.047-.707.064l-.187.012q-.369.022-.737.027h-.15c-.256,0-.512,0-.767-.014l-.11-.006c-.266-.013-.53-.032-.793-.058l-.076-.009c-.273-.028-.545-.064-.814-.107l-.039-.006c-.23-.038-.458-.083-.685-.131a2.062,2.062,0,0,0-.487-.4h0l-.08-.046h0l-6.945-4.01h0c-.576-.327-1.106-.089-1.444.75-4.54,11.275-14.213,22.706-20.661,25.564a3.318,3.318,0,0,0-.367.192c-.079.047-.153.1-.229.154-.034.024-.069.046-.1.07-.1.073-.189.152-.279.235l-.018.017a3.6,3.6,0,0,0-.272.284h0a2.71,2.71,0,0,0-.718,1.841l.927,25.324c0,7.383,3.145,15.175,9.555,18.9h0l7.036,4.062h0l.089.051v0a17.694,17.694,0,0,0,10.689,2.09,6.942,6.942,0,0,0,3.674-1.833c14.1-14.559,20.949-34.264,20.949-45.165l.931-26.487C280.451,205,280.311,204.65,280.06,204.509Z" transform="translate(-226.576 -199.383)" fill="#368dd8"/>
        <path id="Path_170" data-name="Path 170" d="M243.934,296.567l-6.869-3.963h0c-6.405-3.729-9.554-11.52-9.554-18.9l-.926-25.323a2.892,2.892,0,0,1,1.147-2.265,4.024,4.024,0,0,0-.429.424l7.033,4.058a2.7,2.7,0,0,0-.714,1.845l.927,25.323C234.544,285.081,237.636,292.8,243.934,296.567Z" transform="translate(-226.577 -219.128)" opacity="0.15"/>
        <path id="Path_171" data-name="Path 171" d="M303.182,205.224c-.273-.143-.68-.031-1.169.342-6.328,4.842-15.794,4.847-20.611-.762-.03-.035-.056-.065-.086-.1a17.129,17.129,0,0,0,13.659-3.2c.494-.381.9-.48,1.179-.329v-.009Z" transform="translate(-249.707 -200.111)" fill="#fff" opacity="0.3"/>
        <path id="Path_172" data-name="Path 172" d="M258.141,203.536l0,0c-.537-.251-1.027,0-1.347.8-4.539,11.278-14.214,22.707-20.663,25.566a3.617,3.617,0,0,0-1.269.948l-7.033-4.058a4.024,4.024,0,0,1,.429-.424c.052-.043.1-.087.156-.126s.108-.078.165-.117l.169-.1a2.653,2.653,0,0,1,.351-.182c6.444-2.858,16.12-14.288,20.658-25.566.243-.6.58-.888.965-.888a.962.962,0,0,1,.481.139Z" transform="translate(-227.104 -199.384)" fill="#fff" opacity="0.5"/>
      </g>
      <g id="Group_316" data-name="Group 316" transform="translate(35.472 27.267)">
        <path id="Path_173" data-name="Path 173" d="M326.594,248.77l-3.756-2.168-14.72,34.686,2.511,1.449Z" transform="translate(-296.504 -246.602)" fill="#455a64"/>
        <path id="Path_174" data-name="Path 174" d="M295.8,289.105l-3.756-2.168-4.034,8.54,3.756,2.168Z" transform="translate(-288.005 -263.645)" fill="#455a64"/>
        <g id="Group_315" data-name="Group 315" transform="translate(3.756 2.168)">
          <path id="Path_175" data-name="Path 175" d="M305.846,294.494,294.51,282.188l4.034-8.54,6.335,10.675,15.965-33.967,5.917,5.774Z" transform="translate(-294.51 -250.356)" fill="#37474f"/>
        </g>
        <path id="Path_176" data-name="Path 176" d="M288.005,301.726l3.756,2.168L303.1,316.2l-3.754-2.146Z" transform="translate(-288.005 -269.894)" fill="#263238"/>
      </g>
    </g>
  </g>
</svg>
