<svg xmlns="http://www.w3.org/2000/svg" viewBox="0 0 586.527 306.268">
  <path id="bg_layouts" data-name="bg layouts" d="M554.755,237.02c44.5-93.483,22.213-166.284,12-179.208-13.585-17.22-26.1-23.426-46.861-30.686-18.98-6.658-50.478,1.459-56.9,0C425.23,18.5,401.18,8.93,367.972,13.486c-23.292,3.2-48.671,16.576-94.414,30.938C219.21,57.087,215.4,40.542,142.538,29.851,83.416,28.276,63.38,29.025,22.117,90.39,10.78,105.482,4.82,140.1,2.029,162.576c-7.9,63.531,3.733,126.722,99.1,116.11,83.331-18.613,197.421,67.021,303.539,9.763C444.195,258.473,521.186,293.423,554.755,237.02Z" transform="matrix(-1, -0.017, 0.017, -1, 581.143, 318.577)" fill="#f7f8fa" opacity="0.8"/>
</svg>
