<svg xmlns="http://www.w3.org/2000/svg" width="356.212" height="158.419" viewBox="0 0 356.212 158.419">
  <g data-name="Group 336">
    <g data-name="Group 293" transform="translate(-48.06 -366.8)">
      <path data-name="Path 1" d="M355.44 502.33h-68.26v-.19a7.14 7.14 0 00-7.13-7.14H155.4a7.14 7.14 0 00-7.14 7.14l.01.2H77.62a5.62 5.62 0 100 11.22h37.47a9.04 9.04 0 00-.38 2.62 9.04 9.04 0 009.04 9.04h189.6a9.04 9.04 0 009.05-9.04 9.03 9.03 0 00-.39-2.62h33.43a5.62 5.62 0 100-11.23z" fill="#6d6d6d"/>
      <g data-name="Group 2">
        <path data-name="Path 2" d="M264.84 464.86h-3.2a12.23 12.23 0 00.63-3.87 11.61 11.61 0 00-11.33-11.84 11.4 11.4 0 00-10.36 7.04 12.02 12.02 0 00-6.49-1.89 11.87 11.87 0 00-1.5.1 12.32 12.32 0 00-9.78-4.98 11.03 11.03 0 00-9.18 4.93c-.33-.02-.67-.04-1.01-.04a11.95 11.95 0 00-1.26.07 10.9 10.9 0 00-17.78-.85 12 12 0 00-2.23-.22 12.8 12.8 0 00-12.47 11.55h-2.67a1.13 1.13 0 00-1.13 1.13v15.17a1.13 1.13 0 001.13 1.13h88.63a1.13 1.13 0 001.13-1.13v-15.17a1.13 1.13 0 00-1.13-1.13z" fill="#d5e3e3"/>
        <path data-name="Path 3" d="M251.87 453.68a2.88 2.88 0 003.1-1.61c.36-.6.84-1.8.26-2.35-.3-.3-.84-.2-1.37.18-.02-.8-.29-1.41-.73-1.5s-.96.37-1.3 1.12c-.34-.6-.8-.94-1.22-.79-.62.23-.91 1.42-.65 2.66a3.02 3.02 0 001.9 2.3z" fill="#efebc0"/>
      </g>
      <g data-name="Group 85">
        <g data-name="Group 3" fill="#d5e3e3">
          <path data-name="Path 4" d="M192.63 442.04h12.34a.58.58 0 01.58.57v27.04a.58.58 0 01-.58.57h-12.34a.53.53 0 01-.39-.15l-.02-.02v-.01a.53.53 0 01-.16-.4v-27.03a.58.58 0 01.57-.57z"/>
          <path data-name="Path 5" d="M194.46 429.04c3.54-2.05 11.06-1.26 11.09 3.94v5.16a.58.58 0 01-.57.57h-12.35a.53.53 0 01-.39-.15l-.02-.02a.53.53 0 01-.16-.4v-4.6a4.69 4.69 0 012.4-4.5z"/>
          <path data-name="Path 6" d="M100 476.2v6.2a1.14 1.14 0 002.28 0h122.4a1.14 1.14 0 002.29 0v-6.2a1.16 1.16 0 00-.7-1.04v-12.29h1.56a.58.58 0 00.57-.57v-2.52a.58.58 0 00-.57-.58h-.47a5.27 5.27 0 00-4.9-4.94 5.9 5.9 0 00-3.79-3.48v-57.51h4.71a1.16 1.16 0 001.14-1.15v-5.7a1.16 1.16 0 00-1.14-1.15h-.2c-4.86-.18-9.75 0-14.6 0h-105.2a1.05 1.05 0 00-.77.31l-.02.03-.04.03a1.05 1.05 0 00-.3.78v5.7a1.16 1.16 0 001.14 1.14h.2c1.49.06 2.98.08 4.47.08 0 2.23.07 4.47.07 6.68V452a6.62 6.62 0 00-5.43 6.3h-.6a.58.58 0 00-.57.57v2.84a.53.53 0 00.15.38l.01.02.02.01a.53.53 0 00.39.16h1.83v12.8h-2.8a1.16 1.16 0 00-1.13 1.14zm90.4-45.84c1-3.27 4.95-4.6 8.03-4.64 3.3 0 7.51.88 8.83 4.39.62 1.63.29 3.9.29 5.6v38.87H190.2v-39.62a16.46 16.46 0 01.2-4.6zm-75.42-12.73a1.16 1.16 0 011.14-1.15h66.91a1.16 1.16 0 011.14 1.15v52.43a1.16 1.16 0 01-1.14 1.14h-66.91a1.05 1.05 0 01-.77-.3l-.04-.04-.02-.02a1.05 1.05 0 01-.31-.78v-52.43z"/>
        </g>
        <path data-name="Path 7" d="M352.46 473.66c-2.01-3.68-3.8-8.97-8.77-9.23a6.84 6.84 0 00-2.02.19v-56.86c1.61 0 3.22-.02 4.83-.08h.2a1.15 1.15 0 001.13-1.13v-5.66a1.04 1.04 0 00-.3-.76c0-.02-.02-.03-.03-.04l-.03-.02a1.04 1.04 0 00-.77-.3h-5.04v-11.51c1.44.16 2.88.31 4.31.43l.2.02a1.15 1.15 0 001.26-.99l.67-5.61a1.04 1.04 0 00-.2-.8l-.04-.05-.02-.02a1.04 1.04 0 00-.73-.4l-11.79-1.4-28.17-3.35-34.07-4.06-29.44-3.5c-4.76-.57-9.54-1.32-14.32-1.7l-.2-.02a1.15 1.15 0 00-1.26.99l-.66 5.62a1.15 1.15 0 00.99 1.25l4.4.53v24.49c-1.55 0-3.1.02-4.64.08h-.2a1.15 1.15 0 00-1.13 1.13v5.65a1.15 1.15 0 001.13 1.14h4.84v77.9h118.17a7.2 7.2 0 002.88-2.32c2.19-3.06.42-6.73-1.17-9.6zm-88.27-29.9H245.4v-34.24h18.8zm30.91 0h-18.8v-34.24h18.8zm30.9 0h-18.78v-34.24h18.79z" fill="#d5e3e3"/>
        <g data-name="Group 30">
          <path data-name="Path 8" d="M107.3 430.83a27.58 27.58 0 11-22.15-27.05 27.85 27.85 0 0122.15 27.05c.03 2.67 4.17 2.68 4.15 0a31.73 31.73 0 10-25.48 31.1c14.75-2.86 25.33-16.24 25.48-31.1.02-2.67-4.13-2.67-4.15 0z" fill="#d5e3e3"/>
          <circle data-name="Ellipse 8" cx="28.95" cy="28.95" r="28.95" fill="#d5e3e3" transform="translate(50.76 401.88)"/>
          <path data-name="Path 9" d="M87.35 436.88l-6.98 5.55a9.47 9.47 0 00-1.7-2.08l-5.6-6.44c-1.27-1.45-3.37.67-2.11 2.1l6.57 7.56v1.36a1.12 1.12 0 000 .78v45.66a1.5 1.5 0 002.98 0V446.1l8.95-7.12c1.5-1.2-.62-3.3-2.1-2.1z" fill="#6d6d6d"/>
        </g>
        <g data-name="Group 57">
          <path data-name="Path 10" d="M143.37 401.07a27.58 27.58 0 11-22.15-27.05 27.85 27.85 0 0122.15 27.05c.03 2.67 4.17 2.67 4.15 0a31.73 31.73 0 10-25.48 31.1c14.75-2.86 25.33-16.24 25.48-31.1.03-2.67-4.12-2.67-4.15 0z" fill="#b7dbe0"/>
          <circle data-name="Ellipse 9" cx="28.95" cy="28.95" r="28.95" fill="#b6dbe0" transform="translate(86.84 372.11)"/>
          <path data-name="Path 11" d="M123.43 407.12l-6.98 5.55a9.47 9.47 0 00-1.7-2.08l-5.6-6.44c-1.27-1.45-3.37.66-2.12 2.1l6.57 7.55v1.37a1.12 1.12 0 000 .78v45.65a1.5 1.5 0 002.99 0v-45.26l8.95-7.11c1.5-1.2-.63-3.3-2.11-2.11z" fill="#6d6d6d"/>
        </g>
        <g data-name="Group 84">
          <g data-name="Group 71">
            <g data-name="Group 70">
              <g data-name="Group 69">
                <g data-name="Group 68">
                  <g data-name="Group 67">
                    <g data-name="Group 66">
                      <g data-name="Group 65">
                        <g data-name="Group 64">
                          <g data-name="Group 63">
                            <g data-name="Group 62">
                              <g data-name="Group 61">
                                <g data-name="Group 60">
                                  <g data-name="Group 59">
                                    <g data-name="Group 58">
                                      <path data-name="Path 12" d="M400.27 439.5a26.6 26.6 0 11-21.37-26.09 26.86 26.86 0 0121.37 26.09c.02 2.57 4.02 2.58 4 0a30.6 30.6 0 10-24.57 30c14.22-2.76 24.43-15.66 24.57-30 .02-2.57-3.98-2.58-4 0z" fill="#b7dbe0"/>
                                    </g>
                                  </g>
                                </g>
                              </g>
                            </g>
                          </g>
                        </g>
                      </g>
                    </g>
                  </g>
                </g>
              </g>
            </g>
          </g>
          <g data-name="Group 83">
            <g data-name="Group 82">
              <g data-name="Group 81">
                <g data-name="Group 80">
                  <g data-name="Group 79">
                    <g data-name="Group 78">
                      <g data-name="Group 77">
                        <g data-name="Group 76">
                          <g data-name="Group 75">
                            <g data-name="Group 74">
                              <g data-name="Group 73">
                                <g data-name="Group 72">
                                  <circle data-name="Ellipse 10" cx="27.92" cy="27.92" r="27.92" fill="#b7dbe0" transform="translate(345.75 411.57)"/>
                                </g>
                              </g>
                            </g>
                          </g>
                        </g>
                      </g>
                    </g>
                  </g>
                </g>
              </g>
            </g>
          </g>
          <path data-name="Path 13" d="M381.03 445.33l-6.73 5.36a9.14 9.14 0 00-1.64-2l-5.4-6.22c-1.23-1.4-3.25.65-2.04 2.04l6.33 7.28v1.31a1.08 1.08 0 000 .75v44.04a1.44 1.44 0 002.88 0v-43.65l8.64-6.87c1.44-1.15-.6-3.18-2.04-2.04z" fill="#6d6d6d"/>
        </g>
      </g>
      <rect data-name="Rectangle 355" width="3.44" height="13.79" rx="1.72" transform="translate(162.54 447.03)" fill="#444445"/>
      <g data-name="Group 87">
        <g data-name="Group 86">
          <path data-name="Path 14" d="M224.72 455.92a1.57 1.57 0 01.34 1.72c-.72 1.7-5.22 4.37-6.43 5a3.2 3.2 0 01-.4.18l-16.06 5.77a3.15 3.15 0 01-3.37-.82 3.15 3.15 0 011.48-5.18z" fill="#368dd8"/>
          <path data-name="Path 15" d="M201.1 469.9a4.28 4.28 0 01-1.12-8.4l25.07-6.84.46.46a2.69 2.69 0 01.59 2.96c-1.03 2.43-6.89 5.54-6.95 5.57a4.32 4.32 0 01-.53.23l-16.07 5.77a4.29 4.29 0 01-1.45.26zm22.88-12.61l-23.4 6.39a2.02 2.02 0 101.21 3.85l16.07-5.77a2.19 2.19 0 00.25-.12c2-1.04 5.3-3.27 5.87-4.35z" fill="#444445"/>
        </g>
      </g>
      <g data-name="Group 88">
        <path data-name="Path 16" d="M181.58 460.35l27.98-7.62a18.14 18.14 0 0115.13 2.62 1.29 1.29 0 01-.47 2.31l-25.8 7.2z" fill="#368dd8"/>
        <path data-name="Path 17" d="M198.41 466.21a1.35 1.35 0 01-.35-.04l-16.83-4.51a1.35 1.35 0 010-2.61l27.97-7.62a19.45 19.45 0 0116.26 2.8 2.64 2.64 0 01-.92 4.75l-25.76 7.19a1.35 1.35 0 01-.37.04zm-11.65-5.87l11.64 3.12 25.4-7.08a16.74 16.74 0 00-13.9-2.34z" fill="#444445"/>
      </g>
      <path data-name="Path 18" d="M105.27 436.47c-4.97 3.98-8.11 14-9.98 23.03h32.96v-30.59c-8.6.66-16.65 2.48-22.98 7.56z" fill="#dff1e4" opacity=".75"/>
      <g data-name="Group 207">
        <g data-name="Group 145" opacity=".5" style="mix-blend-mode:multiply;isolation:isolate">
          <g data-name="Group 102">
            <g data-name="Group 101" opacity=".48">
              <g data-name="Group 100">
                <g data-name="Group 99">
                  <g data-name="Group 98">
                    <g data-name="Group 97">
                      <g data-name="Group 96">
                        <g data-name="Group 95">
                          <g data-name="Group 94">
                            <g data-name="Group 93">
                              <g data-name="Group 92">
                                <g data-name="Group 91">
                                  <g data-name="Group 90">
                                    <g data-name="Group 89">
                                      <path data-name="Path 19" d="M148.07 511.34H89.92c-.54 0-.98-.68-.98-1.52 0-.83.44-1.52.98-1.52h58.15c.54 0 .98.69.98 1.52 0 .84-.44 1.52-.98 1.52z" fill="gray"/>
                                    </g>
                                  </g>
                                </g>
                              </g>
                            </g>
                          </g>
                        </g>
                      </g>
                    </g>
                  </g>
                </g>
              </g>
            </g>
          </g>
          <g data-name="Group 116">
            <g data-name="Group 115" opacity=".48">
              <g data-name="Group 114">
                <g data-name="Group 113">
                  <g data-name="Group 112">
                    <g data-name="Group 111">
                      <g data-name="Group 110">
                        <g data-name="Group 109">
                          <g data-name="Group 108">
                            <g data-name="Group 107">
                              <g data-name="Group 106">
                                <g data-name="Group 105">
                                  <g data-name="Group 104">
                                    <g data-name="Group 103">
                                      <path data-name="Path 20" d="M153.56 511.34h-1.44c-.54 0-.98-.68-.98-1.52 0-.83.44-1.52.98-1.52h1.44c.54 0 .98.69.98 1.52 0 .84-.44 1.52-.98 1.52z" fill="gray"/>
                                    </g>
                                  </g>
                                </g>
                              </g>
                            </g>
                          </g>
                        </g>
                      </g>
                    </g>
                  </g>
                </g>
              </g>
            </g>
          </g>
          <g data-name="Group 130">
            <g data-name="Group 129" opacity=".48">
              <g data-name="Group 128">
                <g data-name="Group 127">
                  <g data-name="Group 126">
                    <g data-name="Group 125">
                      <g data-name="Group 124">
                        <g data-name="Group 123">
                          <g data-name="Group 122">
                            <g data-name="Group 121">
                              <g data-name="Group 120">
                                <g data-name="Group 119">
                                  <g data-name="Group 118">
                                    <g data-name="Group 117">
                                      <path data-name="Path 21" d="M202.37 519.44H145.8c-.58 0-1.05-.73-1.05-1.62 0-.9.47-1.62 1.05-1.62h56.58c.58 0 1.05.73 1.05 1.62 0 .89-.48 1.62-1.05 1.62z" fill="gray"/>
                                    </g>
                                  </g>
                                </g>
                              </g>
                            </g>
                          </g>
                        </g>
                      </g>
                    </g>
                  </g>
                </g>
              </g>
            </g>
          </g>
          <g data-name="Group 144">
            <g data-name="Group 143" opacity=".48">
              <g data-name="Group 142">
                <g data-name="Group 141">
                  <g data-name="Group 140">
                    <g data-name="Group 139">
                      <g data-name="Group 138">
                        <g data-name="Group 137">
                          <g data-name="Group 136">
                            <g data-name="Group 135">
                              <g data-name="Group 134">
                                <g data-name="Group 133">
                                  <g data-name="Group 132">
                                    <g data-name="Group 131">
                                      <path data-name="Path 22" d="M208.78 519.44h-2.62c-.57 0-1.04-.73-1.04-1.62 0-.9.47-1.62 1.04-1.62h2.62c.57 0 1.04.73 1.04 1.62 0 .89-.47 1.62-1.04 1.62z" fill="gray"/>
                                    </g>
                                  </g>
                                </g>
                              </g>
                            </g>
                          </g>
                        </g>
                      </g>
                    </g>
                  </g>
                </g>
              </g>
            </g>
          </g>
        </g>
        <g data-name="Group 146">
          <path data-name="Path 23" d="M166.42 446.35a2.68 2.68 0 00-2.13-1.25 5.95 5.95 0 00-3.87.87c-1.63 1-2.5 2.76-3.54 4.3-2.57 3.81-4.98 7.72-7.47 11.6a1.7 1.7 0 002.84 1.82c1.6-2.48 3.21-5.02 4.8-7.53l2.44-3.86a20.49 20.49 0 011.25-1.97c.36-.45.94-.7 1.27-1.2a2.8 2.8 0 00.2-.32 1.01 1.01 0 01.24-.35.92.92 0 01.64-.11 8.71 8.71 0 002.15-.14c.94-.17 1.7-.84 1.18-1.86z" fill="#d1b79e"/>
          <path data-name="Path 24" d="M150.83 464.7a1.93 1.93 0 01-1.62-2.97l2.36-3.7c1.66-2.6 3.36-5.3 5.12-7.9l.59-.9a10.1 10.1 0 013.01-3.46 6.19 6.19 0 014.03-.9 2.88 2.88 0 012.31 1.37 1.37 1.37 0 01.08 1.28 1.91 1.91 0 01-1.43.93 8.9 8.9 0 01-2.2.14.77.77 0 00-.48.06.71.71 0 00-.15.22l-.02.05a3.02 3.02 0 01-.22.35 3.35 3.35 0 01-.72.7 3.4 3.4 0 00-.56.51 10.13 10.13 0 00-.83 1.28l-.4.67-2.44 3.86-4.8 7.53a1.93 1.93 0 01-1.63.88zm12.75-19.4a5.81 5.81 0 00-3.04.87 9.74 9.74 0 00-2.86 3.3l-.6.93c-1.75 2.6-3.46 5.28-5.11 7.88l-2.37 3.7a1.46 1.46 0 002.45 1.58c1.44-2.24 3.01-4.7 4.8-7.53l2.44-3.86c.14-.2.26-.43.4-.65a10.46 10.46 0 01.86-1.34 3.8 3.8 0 01.64-.58 2.94 2.94 0 00.63-.6 2.56 2.56 0 00.18-.3l.02-.04a1.08 1.08 0 01.28-.39 1.12 1.12 0 01.8-.16 8.43 8.43 0 002.1-.13 1.48 1.48 0 001.08-.68.92.92 0 00-.07-.85 2.52 2.52 0 00-1.96-1.12 5.26 5.26 0 00-.67-.04z" fill="#444445"/>
        </g>
        <g data-name="Group 147">
          <path data-name="Path 25" d="M155.08 451.99l4 2.7-6.7 9.59-3.9-3.16z" fill="#fff"/>
          <path data-name="Path 26" d="M152.38 464.6a.32.32 0 01-.2-.08l-3.9-3.15a.32.32 0 01-.05-.43l6.6-9.14a.32.32 0 01.43-.07l4 2.7a.32.32 0 01.09.45l-6.71 9.58a.32.32 0 01-.22.13.3.3 0 01-.04 0zm-3.46-3.54l3.4 2.76 6.32-9.04-3.48-2.36z" fill="#444445"/>
        </g>
        <g data-name="Group 181">
          <g data-name="Group 148">
            <path data-name="Path 27" d="M149.79 476.01h-14.77v-12.73c0-5.3 4.29-11.5 9.58-11.5h2.59a2.6 2.6 0 012.6 2.6z" fill="#fff"/>
            <path data-name="Path 28" d="M149.79 476.37H135a.36.36 0 01-.36-.36v-12.73c0-5.37 4.44-11.86 9.95-11.86h2.59a2.96 2.96 0 012.96 2.97V476a.36.36 0 01-.36.36zm-14.4-.72h14.04v-21.26a2.24 2.24 0 00-2.24-2.24h-2.6c-5.1 0-9.2 6.09-9.2 11.13z" fill="#444445"/>
          </g>
          <g data-name="Group 153">
            <g data-name="Group 152">
              <g data-name="Group 151">
                <g data-name="Group 150">
                  <g data-name="Group 149">
                    <path data-name="Path 29" d="M144.51 466.03v-7.85a3 3 0 10-5.98 0v7.85z" fill="#fff"/>
                    <path data-name="Path 30" d="M144.51 466.24h-5.98a.21.21 0 01-.21-.21v-7.85a3.2 3.2 0 016.4 0v7.85a.21.21 0 01-.2.21zm-5.77-.42h5.56v-7.64a2.78 2.78 0 10-5.56 0z" fill="#444445"/>
                  </g>
                </g>
              </g>
            </g>
          </g>
          <g data-name="Group 154">
            <path data-name="Rectangle 356" d="M144.42 445.5h2.05a2.27 2.27 0 012.27 2.28v5.24a2.27 2.27 0 01-2.27 2.27 4.33 4.33 0 01-4.32-4.33v-3.18a2.27 2.27 0 012.27-2.27z" fill="#d1b79e"/>
            <path data-name="Path 31" d="M146.47 455.54a4.58 4.58 0 01-4.57-4.58v-3.18a2.52 2.52 0 012.52-2.52h2.05a2.52 2.52 0 012.52 2.52v5.24a2.52 2.52 0 01-2.52 2.52zm-2.05-9.78a2.02 2.02 0 00-2.02 2.02v3.18a4.08 4.08 0 004.07 4.08 2.02 2.02 0 002.03-2.02v-5.24a2.02 2.02 0 00-2.03-2.02z" fill="#444445"/>
          </g>
          <g data-name="Group 158">
            <g data-name="Group 157">
              <g data-name="Group 156">
                <path data-name="Path 32" d="M155.89 445.46c-.01 3.18-3.87 5.74-8.63 5.73h-.16c-4.76 0-8.6-2.6-8.59-5.76l.04-11.61c0-3.18 3.87-5.74 8.62-5.73h.17c4.75.01 8.6 2.6 8.59 5.77z" fill="#c9ab98"/>
                <path data-name="Path 33" d="M149.35 428.26v22.76c3.74-.61 6.53-2.86 6.54-5.55l.04-11.61c0-2.71-2.8-4.99-6.58-5.6z" fill="#d1b79e"/>
                <g data-name="Group 155" fill="#444445">
                  <path data-name="Path 34" d="M147.3 451.33h-.2a11.23 11.23 0 01-6.19-1.73 5.11 5.11 0 01-2.57-4.18l.04-11.6c.01-3.24 3.94-5.87 8.76-5.87h.2a11.23 11.23 0 016.18 1.73 5.11 5.11 0 012.57 4.18l-.04 11.6c0 3.24-3.94 5.87-8.76 5.87zm-.16-23.1c-4.64 0-8.42 2.5-8.43 5.59l-.04 11.6a4.86 4.86 0 002.45 3.97 10.86 10.86 0 005.98 1.67h.2c4.64 0 8.42-2.5 8.43-5.6l.04-11.6a4.86 4.86 0 00-2.45-3.97 10.86 10.86 0 00-5.98-1.66h-.2z"/>
                  <path data-name="Path 35" d="M147.3 451.44h-.2a11.34 11.34 0 01-6.25-1.75 5.22 5.22 0 01-2.62-4.27l.04-11.6c0-3.3 3.99-5.98 8.87-5.98h.2a11.34 11.34 0 016.24 1.75 5.22 5.22 0 012.62 4.27l-.04 11.6c0 3.3-3.99 5.98-8.87 5.98zm-.16-23.49v.11c-4.76 0-8.63 2.59-8.64 5.76l-.04 11.6a5 5 0 002.52 4.09 11.12 11.12 0 006.12 1.7h.2c4.76 0 8.64-2.57 8.65-5.75l.03-11.6a5 5 0 00-2.52-4.09 11.12 11.12 0 00-6.12-1.7h-.16zm.15 23.22h-.2a10.97 10.97 0 01-6.04-1.69 4.97 4.97 0 01-2.5-4.06l.04-11.6c0-3.15 3.84-5.7 8.54-5.7h.2a10.97 10.97 0 016.04 1.68 4.97 4.97 0 012.5 4.06l-.03 11.5h.05v.22h-.05c-.1 3.09-3.9 5.59-8.55 5.59zm-.15-22.83c-4.58 0-8.31 2.46-8.32 5.48l-.04 11.6a4.75 4.75 0 002.4 3.88 10.75 10.75 0 005.92 1.65h.2c4.58 0 8.3-2.46 8.32-5.49v-.1l.04-11.5a4.75 4.75 0 00-2.4-3.88 10.75 10.75 0 00-5.92-1.65z"/>
                </g>
              </g>
            </g>
          </g>
          <g data-name="Group 161">
            <g data-name="Group 160">
              <g data-name="Group 159">
                <path data-name="Path 36" d="M146.21 438.5a.58.58 0 11-.58-.6.58.58 0 01.58.6z" fill="#444445"/>
              </g>
            </g>
          </g>
          <g data-name="Group 164">
            <g data-name="Group 163">
              <g data-name="Group 162">
                <path data-name="Path 37" d="M154.66 438.5a.58.58 0 11-.58-.6.58.58 0 01.58.6z" fill="#444445"/>
              </g>
            </g>
          </g>
          <g data-name="Group 165" fill="#b07d77">
            <path data-name="Path 38" d="M153.66 441.94a1.3 1.3 0 101.5 1.28 1.4 1.4 0 00-1.5-1.28z"/>
            <path data-name="Path 39" d="M145.13 441.94a1.3 1.3 0 101.49 1.28 1.4 1.4 0 00-1.5-1.28z"/>
          </g>
          <path data-name="Path 40" d="M156.3 436.57l.26-1.33a11 11 0 00-.02-2.48 18.83 18.83 0 00-2.92-7.63 3.82 3.82 0 00-1.32-1.1 2.78 2.78 0 01-1.5 1.1c-1.55.58-3.27.58-4.88 1.02a18.34 18.34 0 00-3.14 1.29 10.6 10.6 0 00-3.64 2.87 10.72 10.72 0 00-2.34 3.77c-.48 1.55-.12 3.49.1 5.08.12 1 .3 2 .5 2.99a4.27 4.27 0 00.35 1.14 1.5 1.5 0 00.86.77c0-1.2.03-2.4-.02-3.59a9.8 9.8 0 01.36-3.4 7.53 7.53 0 01.9-2.3 2.98 2.98 0 012.06-.93 25.37 25.37 0 019.94.43 5.68 5.68 0 012.25 1.07c.74.62 1.1 1.71 1.98 2.15a7.74 7.74 0 00.22-.92z" fill="#444445"/>
          <g data-name="Group 166">
            <path data-name="Path 41" d="M149.38 442.19a.86.86 0 01-.55-.19.12.12 0 11.16-.18.67.67 0 00.72.05.63.63 0 00.31-.6.82.82 0 00-.42-.6 1.08 1.08 0 00-.33-.12l-.1-.02v-1.1a.12.12 0 01.12-.13.13.13 0 01.12.12v.91a1.31 1.31 0 01.31.14 1.04 1.04 0 01.54.77.87.87 0 01-.44.84.9.9 0 01-.44.1z" fill="#444445"/>
          </g>
          <g data-name="Group 171">
            <g data-name="Group 167" transform="translate(141.32 435.08)">
              <circle data-name="Ellipse 11" cx="3.1" cy="3.1" r="3.1" transform="translate(.34 .34)" fill="#fff" opacity=".45"/>
              <path data-name="Path 42" d="M3.44 6.88a3.44 3.44 0 113.44-3.44 3.44 3.44 0 01-3.44 3.44zm0-6.19a2.75 2.75 0 102.75 2.75A2.75 2.75 0 003.44.7z" fill="#444445"/>
            </g>
            <g data-name="Group 168" transform="translate(150.93 435.23)">
              <circle data-name="Ellipse 12" cx="2.77" cy="2.77" r="2.77" transform="rotate(-76.76 3.4 2.7)" fill="#fff" opacity=".45"/>
              <path data-name="Path 43" d="M3.32 6.4A3.07 3.07 0 116.4 3.32 3.08 3.08 0 013.32 6.4zm0-5.53a2.46 2.46 0 102.46 2.45A2.46 2.46 0 003.32.87z" fill="#444445"/>
            </g>
            <g data-name="Group 170">
              <g data-name="Group 169">
                <path data-name="Path 44" d="M151.43 438.74a.34.34 0 01-.23-.08 2.22 2.22 0 00-3.03-.01.34.34 0 01-.48-.5 2.88 2.88 0 013.96-.01.34.34 0 01-.22.6z" fill="#444445"/>
              </g>
            </g>
          </g>
          <g data-name="Group 172">
            <path data-name="Path 45" d="M150.67 446.52a.31.31 0 01-.19-.06 2.52 2.52 0 00-1.94-.06l-.31.07a.32.32 0 11-.13-.63l.3-.06a3 3 0 012.45.16.32.32 0 01-.18.57z" fill="#424243"/>
          </g>
          <g data-name="Group 178">
            <g data-name="Group 175">
              <g data-name="Group 174">
                <g data-name="Group 173">
                  <path data-name="Path 46" d="M138.47 442.6a2.59 2.59 0 01-1.7-.66 2.11 2.11 0 01-.59-1.57 2.27 2.27 0 012.3-2.31.34.34 0 01.23.09.31.31 0 01.1.22l-.02 3.91a.31.31 0 01-.3.31zm-.3-3.89a1.64 1.64 0 00-1.37 1.66 1.51 1.51 0 00.41 1.12 1.8 1.8 0 00.95.45z" fill="#444445"/>
                  <path data-name="Path 47" d="M138.87 438.35s-2.2.06-2.2 2 2.18 1.91 2.18 1.91z" fill="#c9ab98"/>
                </g>
              </g>
            </g>
            <g data-name="Group 177">
              <g data-name="Group 176">
                <path data-name="Path 48" d="M138.63 438.92a1.4 1.4 0 00-1.4 1.4 1.32 1.32 0 001.39 1.33z" fill="#af917e"/>
              </g>
            </g>
          </g>
          <g data-name="Group 179">
            <path data-name="Path 49" d="M143.1 435.19a.28.28 0 01-.08-.55l2.31-.42a.28.28 0 01.32.22.28.28 0 01-.22.32l-2.3.43z" fill="#424243"/>
          </g>
          <g data-name="Group 180">
            <path data-name="Path 50" d="M152.52 435.47a.25.25 0 01.16-.47l2.04.6a.25.25 0 01.17.32.25.25 0 01-.32.16l-2.04-.6z" fill="#424243"/>
          </g>
        </g>
        <path data-name="Path 51" d="M176.07 462.73c-2.19-5.13-4.64-9.66-11.25-11.1a97.23 97.23 0 00-20.48-2.22c-5.12 0-10.24.04-15.19.36v30.6h53.67c-2.33-5.86-4.26-11.84-6.75-17.64z" fill="#dff1e4" opacity=".75"/>
        <g data-name="Group 206">
          <path data-name="Path 52" d="M215.62 466.28l-32.24-6.78c-2.45-7.07-4.48-14.27-7.1-21.28-2.32-6.19-4.9-11.65-11.88-13.4a90.23 90.23 0 00-21.6-2.67c-16.2 0-32.4.37-43.94 9.56s-14.98 44.95-14.98 48.27v14.75H220a7.45 7.45 0 007.44-7.45v-6.43a14.9 14.9 0 00-11.83-14.57zM95.3 459.5c1.87-9.04 5.01-19.05 9.98-23.03 9.5-7.62 22.82-7.93 36.16-7.93a73.75 73.75 0 0117.78 2.22c5.73 1.44 7.86 5.98 9.77 11.1 2.15 5.8 3.83 11.78 5.85 17.64z" fill="#368dd8"/>
          <path data-name="Path 53" d="M215.93 464.82s-5.87-1.32-12.6-2.73l-5.02 1.42a.32.32 0 00.02.61l16.98 3.62a13.4 13.4 0 0110.65 13.11v6.43a5.96 5.96 0 01-5.96 5.96H85.37v-13.26c0-3.01 3.46-38.38 14.42-47.1 10.73-8.54 25.83-9.23 43.01-9.23a88.99 88.99 0 0121.24 2.63c6.3 1.57 8.63 6.57 10.84 12.47 1.52 4.07 2.88 8.3 4.18 12.38a397.8 397.8 0 002.85 8.67 1.12 1.12 0 00.74.97 3.26 3.26 0 002.2.13l5.94-1.68c-2.6-.55-5.19-.77-6.27-1-.91-2.66-1.78-5.37-2.62-8-1.32-4.12-2.68-8.39-4.23-12.52-2.41-6.45-5.22-12.4-12.9-14.32a92 92 0 00-21.96-2.72c-14.46 0-32.46 0-44.87 9.88-12.92 10.28-15.55 49.07-15.55 49.44v14.74a1.49 1.49 0 001.5 1.5H220a8.94 8.94 0 008.93-8.94v-6.43a16.46 16.46 0 00-13.01-16.03z" fill="#444445"/>
          <g data-name="Group 182">
            <path data-name="Path 54" d="M191.08 474.86a20.11 20.11 0 0119.63 24.38L171.4 499a20.11 20.11 0 0119.69-24.14z" fill="#368dd8"/>
            <path data-name="Path 55" d="M210.7 500.73l-39.32-.24a1.49 1.49 0 01-1.45-1.19 21.59 21.59 0 1142.24.25 1.49 1.49 0 01-1.45 1.18zM171.39 499zm1.1-4.05a18.83 18.83 0 00.17 2.57l36.83.22a18.84 18.84 0 00.2-2.79 18.6 18.6 0 00-37.2 0z" fill="#444445"/>
          </g>
          <g data-name="Group 183">
            <path data-name="Path 56" d="M91.57 474.86a20.11 20.11 0 0119.64 24.38L71.9 499a20.11 20.11 0 0119.68-24.14z" fill="#368dd8"/>
            <path data-name="Path 57" d="M111.2 500.73l-39.32-.24a1.49 1.49 0 01-1.45-1.19 21.59 21.59 0 1142.24.25 1.49 1.49 0 01-1.46 1.18zM71.88 499zm1.09-4.05a18.77 18.77 0 00.17 2.57l36.83.22a18.85 18.85 0 00.2-2.79 18.6 18.6 0 00-37.2 0z" fill="#444445"/>
          </g>
          <g data-name="Group 190">
            <g data-name="Group 186">
              <g data-name="Group 184">
                <circle data-name="Ellipse 13" cx="13.7" cy="13.7" r="13.7" transform="rotate(-10.98 2605.97 -668.42)" fill="#6d6d6d"/>
              </g>
              <g data-name="Group 185">
                <path data-name="Path 58" d="M175.89 494.95a15.19 15.19 0 1115.19 15.2 15.2 15.2 0 01-15.2-15.2zm2.98 0a12.21 12.21 0 1012.2-12.2 12.22 12.22 0 00-12.2 12.2z" fill="#444445"/>
              </g>
            </g>
            <g data-name="Group 189">
              <g data-name="Group 187">
                <path data-name="Path 59" d="M184.87 494.95a6.2 6.2 0 106.2-6.2 6.2 6.2 0 00-6.2 6.2z" fill="#ededed"/>
              </g>
              <g data-name="Group 188">
                <path data-name="Path 60" d="M183.38 494.95a7.7 7.7 0 117.7 7.7 7.7 7.7 0 01-7.7-7.7zm2.98 0a4.71 4.71 0 104.72-4.71 4.72 4.72 0 00-4.72 4.71z" fill="#368dd8"/>
              </g>
            </g>
          </g>
          <g data-name="Group 197">
            <g data-name="Group 193">
              <g data-name="Group 191">
                <circle data-name="Ellipse 14" cx="13.7" cy="13.7" r="13.7" transform="rotate(-8.11 3424.5 -294.54)" fill="#6d6d6d"/>
              </g>
              <g data-name="Group 192">
                <path data-name="Path 61" d="M76.38 494.95a15.19 15.19 0 1115.2 15.2 15.2 15.2 0 01-15.2-15.2zm2.98 0a12.21 12.21 0 1012.21-12.2 12.22 12.22 0 00-12.2 12.2z" fill="#444445"/>
              </g>
            </g>
            <g data-name="Group 196">
              <g data-name="Group 194">
                <path data-name="Path 62" d="M85.37 494.95a6.2 6.2 0 106.2-6.2 6.2 6.2 0 00-6.2 6.2z" fill="#ededed"/>
              </g>
              <g data-name="Group 195">
                <path data-name="Path 63" d="M83.88 494.95a7.7 7.7 0 117.7 7.7 7.7 7.7 0 01-7.7-7.7zm2.98 0a4.71 4.71 0 104.71-4.71 4.72 4.72 0 00-4.71 4.71z" fill="#368dd8"/>
              </g>
            </g>
          </g>
          <g data-name="Group 198">
            <path data-name="Path 64" d="M226.73 476.31a7.06 7.06 0 01-9.3-9.52 14.89 14.89 0 019.3 9.52z" fill="#ededed"/>
            <path data-name="Path 65" d="M215.23 469.88a8.48 8.48 0 01.87-3.74 1.49 1.49 0 011.82-.75 16.44 16.44 0 0110.23 10.47 1.49 1.49 0 01-.8 1.8 8.55 8.55 0 01-12.12-7.78zm3.1-1.11a5.51 5.51 0 00-.12 1.11 5.6 5.6 0 005.58 5.59 5.49 5.49 0 001-.1 13.48 13.48 0 00-6.47-6.6z" fill="#444445"/>
          </g>
          <g data-name="Group 199">
            <path data-name="Rectangle 357" fill="#ededed" d="M232.17 488.6h-13.5v-6.04h13.5z"/>
            <path data-name="Path 66" d="M217.16 488.6v-6.03a1.49 1.49 0 011.5-1.5h13.5a1.49 1.49 0 011.5 1.5v6.02a1.49 1.49 0 01-1.5 1.5h-13.5a1.49 1.49 0 01-1.5-1.5zm13.52-4.54h-10.53v3.04h10.53z" fill="#444445"/>
          </g>
          <g data-name="Group 200">
            <path data-name="Path 67" d="M160.12 456.6h13.1a1.49 1.49 0 000-2.98h-13.1a1.49 1.49 0 000 2.98z" fill="#fff"/>
          </g>
          <g data-name="Group 201">
            <path data-name="Path 68" d="M111.67 449.77h7.86a1.49 1.49 0 100-2.97h-7.86a1.49 1.49 0 000 2.97z" fill="#fff"/>
          </g>
          <path data-name="Path 69" d="M94.13 460.44a1.49 1.49 0 01-.3-1.24c2.55-12.3 6.08-20.34 10.51-23.9 10.3-8.24 25.15-8.24 37.1-8.24a75.46 75.46 0 0118.13 2.26c6.45 1.62 8.88 6.83 10.8 12.02 1.28 3.44 2.4 6.97 3.49 10.4.76 2.4 1.55 4.87 2.38 7.28a1.49 1.49 0 01-1.41 1.97H95.29a1.49 1.49 0 01-1.16-.55zm76.89-7.8a227.1 227.1 0 00-3.44-10.26c-1.79-4.81-3.68-8.9-8.74-10.17a72.43 72.43 0 00-17.4-2.17c-14.1 0-26.48.57-35.24 7.6-3.61 2.9-6.74 9.92-9.07 20.37h75.62c-.6-1.8-1.17-3.6-1.73-5.38zm-11.82-21.88z" fill="#444445"/>
          <g data-name="Group 202">
            <path data-name="Path 70" d="M128.66 496.22a1.49 1.49 0 001.49-1.49v-65.85a1.49 1.49 0 10-2.98 0v65.85a1.49 1.49 0 001.49 1.49z" fill="#444445"/>
          </g>
          <g data-name="Group 205">
            <g data-name="Group 203">
              <path data-name="Path 71" d="M113.82 468.28h8a1.49 1.49 0 000-2.98h-8a1.49 1.49 0 100 2.98z" fill="#444445"/>
            </g>
            <g data-name="Group 204">
              <path data-name="Path 72" d="M135.5 468.28h8a1.49 1.49 0 100-2.98h-8a1.49 1.49 0 000 2.98z" fill="#444445"/>
            </g>
          </g>
        </g>
      </g>
      <path data-name="Path 73" d="M352.86 423.09h-34.88v26.98h36.46z" fill="#fcfbe6" opacity=".5"/>
      <path data-name="Path 74" d="M277.45 445.68l-7.33 17.42a4.05 4.05 0 003.7 5.62l39.1.3a4.05 4.05 0 004.09-4.05v-17.41a4.05 4.05 0 00-4.02-4.05l-31.76-.31a4.05 4.05 0 00-3.78 2.48z" fill="#ededed" opacity=".19"/>
      <path data-name="Path 75" d="M359.04 417.39h-78.28l-13.7 32.54-13.68-7.31-17.13 14.77-5.4 40h132.87zM237.6 457.6l9.28-7.25 11.91 7.4zm80.38-7.54H273.9l11.36-26.98h67.6l1.59 26.98z" fill="#d99b39"/>
      <g data-name="Group 264" opacity=".54" style="mix-blend-mode:multiply;isolation:isolate">
        <g data-name="Group 221">
          <g data-name="Group 220">
            <g data-name="Group 219">
              <g data-name="Group 218">
                <g data-name="Group 217">
                  <g data-name="Group 216">
                    <g data-name="Group 215">
                      <g data-name="Group 214">
                        <g data-name="Group 213">
                          <g data-name="Group 212">
                            <g data-name="Group 211">
                              <g data-name="Group 210">
                                <g data-name="Group 209">
                                  <g data-name="Group 208">
                                    <path data-name="Path 76" d="M289.27 510.57h48.64c.45 0 .82-.61.82-1.36 0-.75-.37-1.36-.82-1.36h-48.64c-.45 0-.82.61-.82 1.36 0 .75.37 1.36.82 1.36z" fill="#717171"/>
                                  </g>
                                </g>
                              </g>
                            </g>
                          </g>
                        </g>
                      </g>
                    </g>
                  </g>
                </g>
              </g>
            </g>
          </g>
        </g>
        <g data-name="Group 235">
          <g data-name="Group 234" opacity=".48">
            <g data-name="Group 233">
              <g data-name="Group 232">
                <g data-name="Group 231">
                  <g data-name="Group 230">
                    <g data-name="Group 229">
                      <g data-name="Group 228">
                        <g data-name="Group 227">
                          <g data-name="Group 226">
                            <g data-name="Group 225">
                              <g data-name="Group 224">
                                <g data-name="Group 223">
                                  <g data-name="Group 222">
                                    <path data-name="Path 77" d="M284.68 510.57h1.2c.45 0 .82-.61.82-1.36 0-.75-.37-1.36-.82-1.36h-1.2c-.45 0-.82.61-.82 1.36 0 .75.37 1.36.82 1.36z" fill="#717171"/>
                                  </g>
                                </g>
                              </g>
                            </g>
                          </g>
                        </g>
                      </g>
                    </g>
                  </g>
                </g>
              </g>
            </g>
          </g>
        </g>
        <g data-name="Group 249">
          <g data-name="Group 248">
            <g data-name="Group 247">
              <g data-name="Group 246">
                <g data-name="Group 245">
                  <g data-name="Group 244">
                    <g data-name="Group 243">
                      <g data-name="Group 242">
                        <g data-name="Group 241">
                          <g data-name="Group 240">
                            <g data-name="Group 239">
                              <g data-name="Group 238">
                                <g data-name="Group 237">
                                  <g data-name="Group 236">
                                    <path data-name="Path 78" d="M243.85 517.8h47.33c.48 0 .88-.64.88-1.44 0-.8-.4-1.45-.88-1.45h-47.33c-.48 0-.87.65-.87 1.45 0 .8.4 1.45.87 1.45z" fill="#717171"/>
                                  </g>
                                </g>
                              </g>
                            </g>
                          </g>
                        </g>
                      </g>
                    </g>
                  </g>
                </g>
              </g>
            </g>
          </g>
        </g>
        <g data-name="Group 263">
          <g data-name="Group 262">
            <g data-name="Group 261">
              <g data-name="Group 260">
                <g data-name="Group 259">
                  <g data-name="Group 258">
                    <g data-name="Group 257">
                      <g data-name="Group 256">
                        <g data-name="Group 255">
                          <g data-name="Group 254">
                            <g data-name="Group 253">
                              <g data-name="Group 252">
                                <g data-name="Group 251">
                                  <g data-name="Group 250">
                                    <path data-name="Path 79" d="M238.5 517.8h2.18c.48 0 .88-.64.88-1.44 0-.8-.4-1.45-.88-1.45h-2.18c-.48 0-.88.65-.88 1.45 0 .8.4 1.45.88 1.45z" fill="#717171"/>
                                  </g>
                                </g>
                              </g>
                            </g>
                          </g>
                        </g>
                      </g>
                    </g>
                  </g>
                </g>
              </g>
            </g>
          </g>
        </g>
      </g>
      <g data-name="Group 266">
        <g data-name="Group 265">
          <path data-name="Path 80" d="M246.88 450.35l11.8 7.33h8.95l-17.6-9.92-4.44 3.6z" fill="#d99b39"/>
          <path data-name="Path 81" d="M267.63 459.04h-8.96a1.35 1.35 0 01-.71-.2L246.97 452l-.54.43a1.35 1.35 0 01-1.69-2.12l4.45-3.6a1.35 1.35 0 011.51-.12l17.6 9.92a1.35 1.35 0 01-.67 2.53zm-8.42-1.47h7.36l-15.5-9.08-2.8 2.6z" fill="#444445"/>
        </g>
      </g>
      <g data-name="Group 267">
        <path data-name="Path 82" d="M246.55 468.98h-11.68c-.76 0-.58-.65-.58-1.41s-.18-1.35.58-1.35h11.68a1.38 1.38 0 110 2.76z" fill="#ededed"/>
      </g>
      <g data-name="Group 268">
        <path data-name="Path 83" d="M240.7 474.61h-5.83c-.76 0-1.03-.64-1.03-1.4s.27-1.36 1.03-1.36h5.84a1.38 1.38 0 010 2.76z" fill="#b66c65"/>
      </g>
      <g data-name="Group 269">
        <path data-name="Path 84" d="M362 467.63h-11.68a1.38 1.38 0 010-2.76H362a1.38 1.38 0 110 2.76z" fill="#ededed"/>
      </g>
      <g data-name="Group 270">
        <path data-name="Path 85" d="M362 473.26h-5.85a1.38 1.38 0 010-2.76H362a1.38 1.38 0 110 2.76z" fill="#b66c65"/>
      </g>
      <g data-name="Group 271">
        <path data-name="Rectangle 358" fill="#6d6d6d" d="M227.01 497.38h17.76v4.67h-17.76z"/>
        <path data-name="Path 86" d="M244.77 503.44h-17.76a1.38 1.38 0 01-1.38-1.38v-4.68a1.38 1.38 0 011.38-1.38h17.76a1.38 1.38 0 011.38 1.38v4.68a1.38 1.38 0 01-1.38 1.38zm-16.38-2.76h15v-1.92h-15z" fill="#444445"/>
      </g>
      <g data-name="Group 272">
        <path data-name="Rectangle 359" fill="#6d6d6d" d="M350.04 497.46h17.76v4.67h-17.76z"/>
        <path data-name="Path 87" d="M367.8 503.51h-17.76a1.38 1.38 0 01-1.38-1.38v-4.67a1.38 1.38 0 011.38-1.38h17.76a1.38 1.38 0 011.38 1.38v4.67a1.38 1.38 0 01-1.37 1.38zm-16.38-2.76h15v-1.91h-15z" fill="#444445"/>
      </g>
      <g data-name="Group 273">
        <path data-name="Path 88" d="M353.37 433.2h-14.5a1.38 1.38 0 110-2.75h14.5a1.38 1.38 0 010 2.76z" fill="#fff"/>
      </g>
      <g data-name="Group 274">
        <path data-name="Path 89" d="M336.13 441.36h-5.69a1.38 1.38 0 110-2.76h5.7a1.38 1.38 0 010 2.76z" fill="#fff"/>
      </g>
      <path data-name="Path 90" d="M354.44 451.45H273.9a1.38 1.38 0 01-1.27-1.91l11.35-26.99a1.38 1.38 0 011.27-.84h67.6a1.38 1.38 0 011.39 1.3l1.58 26.99a1.38 1.38 0 01-1.38 1.46zm-78.47-2.76h77l-1.41-24.22h-65.39z" fill="#444445"/>
      <g data-name="Group 275">
        <path data-name="Path 91" d="M362.68 473.09l-1.9-26.93a9.98 9.98 0 019.95 9.27l.6 8.38a8.66 8.66 0 01-8.65 9.28z" fill="#6d6d6d"/>
        <path data-name="Path 92" d="M362.68 474.47a1.38 1.38 0 01-1.38-1.29l-1.91-26.92a1.38 1.38 0 011.38-1.48 11.4 11.4 0 0111.32 10.56l.6 8.38a10.04 10.04 0 01-10.02 10.75zm-.42-26.8l1.7 23.93a7.29 7.29 0 005.98-7.69l-.59-8.38a8.64 8.64 0 00-7.09-7.86z" fill="#444445"/>
      </g>
      <g data-name="Group 276">
        <path data-name="Path 93" d="M318.28 498.78a1.38 1.38 0 01-1.38-1.38v-74.31a1.38 1.38 0 112.76 0v74.3a1.38 1.38 0 01-1.38 1.39z" fill="#444445"/>
      </g>
      <g data-name="Group 279">
        <g data-name="Group 277">
          <path data-name="Path 94" d="M311.99 461h-12.42a1.38 1.38 0 010-2.76h12.42a1.38 1.38 0 010 2.76z" fill="#444445"/>
        </g>
        <g data-name="Group 278">
          <path data-name="Path 95" d="M336.98 461h-12.41a1.38 1.38 0 010-2.76h12.41a1.38 1.38 0 110 2.76z" fill="#444445"/>
        </g>
      </g>
      <g data-name="Group 280">
        <path data-name="Path 96" d="M237.99 490.44h-.02l-6-.05a1.38 1.38 0 01-1.37-1.4 1.4 1.4 0 011.39-1.36l4.96.04a19.66 19.66 0 0137.43-.04h48.66a19.66 19.66 0 0137.42 0h2.78a1.38 1.38 0 010 2.76h-3.82a1.38 1.38 0 01-1.33-1.03 16.9 16.9 0 00-32.68 0 1.38 1.38 0 01-1.33 1.03h-50.74a1.38 1.38 0 01-1.33-1.03 16.9 16.9 0 00-32.69.05 1.38 1.38 0 01-1.33 1.03z" fill="#444445"/>
      </g>
      <path data-name="Path 97" d="M363.72 498.75H230.84a1.35 1.35 0 01-1.34-1.53l5.4-40a1.35 1.35 0 01.47-.85l17.13-14.78a1.35 1.35 0 011.52-.17l12.37 6.61 13.12-31.17a1.35 1.35 0 011.25-.83h78.28a1.35 1.35 0 011.35 1.28l4.69 80a1.35 1.35 0 01-1.35 1.44zm-131.33-2.7h129.9l-4.53-77.31h-76.1l-13.36 31.71a1.35 1.35 0 01-1.88.67l-12.86-6.88-5.14 5.44 11.09 6.93a1.35 1.35 0 01-.71 2.5h-.01l-21.2-.15a1.38 1.38 0 01-.19-.01zm9.1-39.77l12.5.1-7.02-4.38z" fill="#444445"/>
      <g data-name="Group 283">
        <g data-name="Group 281" transform="translate(240.04 479.38)">
          <circle data-name="Ellipse 15" cx="12.69" cy="12.69" r="12.69" transform="rotate(-74.42 16.1 12.22)" fill="#6d6d6d"/>
          <path data-name="Path 98" d="M15.63 29.7A14.07 14.07 0 1129.7 15.63 14.08 14.08 0 0115.63 29.7zm0-25.38a11.3 11.3 0 1011.3 11.31 11.32 11.32 0 00-11.3-11.3z" fill="#444445"/>
        </g>
        <g data-name="Group 282">
          <path data-name="Path 99" d="M261.42 495a5.75 5.75 0 11-5.75-5.74 5.75 5.75 0 015.75 5.75z" fill="#ededed"/>
          <path data-name="Path 100" d="M255.67 502.13a7.13 7.13 0 117.13-7.12 7.13 7.13 0 01-7.13 7.13zm0-11.49a4.37 4.37 0 104.37 4.37 4.37 4.37 0 00-4.37-4.37z" fill="#444445"/>
        </g>
      </g>
      <g data-name="Group 286">
        <g data-name="Group 284" transform="translate(326.47 479.73)">
          <circle data-name="Ellipse 16" cx="12.69" cy="12.69" r="12.69" transform="rotate(-76.65 15.62 12.35)" fill="#6d6d6d"/>
          <path data-name="Path 101" d="M15.28 29.34a14.07 14.07 0 1114.06-14.06 14.08 14.08 0 01-14.06 14.06zm0-25.37a11.3 11.3 0 1011.3 11.3 11.32 11.32 0 00-11.3-11.3z" fill="#444445"/>
        </g>
        <g data-name="Group 285">
          <path data-name="Path 102" d="M347.5 495.01a5.75 5.75 0 11-5.75-5.75 5.75 5.75 0 015.75 5.75z" fill="#ededed"/>
          <path data-name="Path 103" d="M341.75 502.14a7.13 7.13 0 117.13-7.13 7.13 7.13 0 01-7.13 7.13zm0-11.5a4.37 4.37 0 104.37 4.37 4.37 4.37 0 00-4.37-4.37z" fill="#444445"/>
        </g>
      </g>
    </g>
  </g>
</svg>