<svg xmlns="http://www.w3.org/2000/svg" width="356.212" height="158.419" viewBox="0 0 356.212 158.419">
  <g id="Group_336" data-name="Group 336" transform="translate(-8 -90.571)">
    <g id="Group_293" data-name="Group 293" transform="translate(-1155 45)">
      <g id="Group_293-2" data-name="Group 293" transform="translate(1114.945 -321.225)">
        <path id="Path_1" data-name="Path 1" d="M400.734,744.8H332.475c0-.065.01-.129.01-.194a7.138,7.138,0,0,0-7.137-7.137H200.684a7.137,7.137,0,0,0-7.137,7.137c0,.065.008.129.01.194H122.919a5.616,5.616,0,1,0,0,11.231h37.469a9.04,9.04,0,0,0-.386,2.611h0a9.04,9.04,0,0,0,9.04,9.04H358.655a9.041,9.041,0,0,0,9.041-9.04h0a9.031,9.031,0,0,0-.387-2.611h33.425a5.616,5.616,0,1,0,0-11.231Z" transform="translate(-45.297 -242.466)" fill="#6d6d6d"/>
        <g id="Group_2" data-name="Group 2" transform="translate(175.075 448.381)">
          <path id="Path_2" data-name="Path 2" d="M505.064,620.6h-3.2a12.233,12.233,0,0,0,.634-3.868,11.612,11.612,0,0,0-11.337-11.844,11.4,11.4,0,0,0-10.36,7.047,12.021,12.021,0,0,0-6.484-1.888,11.866,11.866,0,0,0-1.5.1,12.317,12.317,0,0,0-9.782-4.988,11.034,11.034,0,0,0-9.176,4.937c-.337-.029-.676-.048-1.017-.048a11.952,11.952,0,0,0-1.253.071,10.892,10.892,0,0,0-17.784-.848,12.008,12.008,0,0,0-2.226-.215A12.8,12.8,0,0,0,419.106,620.6h-2.671a1.133,1.133,0,0,0-1.133,1.133V636.9a1.133,1.133,0,0,0,1.133,1.133h88.63A1.133,1.133,0,0,0,506.2,636.9V621.734A1.133,1.133,0,0,0,505.064,620.6Z" transform="translate(-415.301 -604.123)" fill="#d5e3e3"/>
          <path id="Path_3" data-name="Path 3" d="M633.525,607.977a2.878,2.878,0,0,0,3.107-1.613c.357-.6.836-1.8.26-2.349-.311-.3-.84-.2-1.377.179-.022-.8-.287-1.411-.729-1.5s-.956.371-1.3,1.121c-.337-.6-.794-.935-1.214-.785-.624.224-.919,1.411-.659,2.652A3.019,3.019,0,0,0,633.525,607.977Z" transform="translate(-556.732 -602.676)" fill="#efebc0"/>
        </g>
        <g id="Group_85" data-name="Group 85" transform="translate(48.055 366.796)">
          <g id="Group_3" data-name="Group 3" transform="translate(51.942 18.396)">
            <path id="Path_4" data-name="Path 4" d="M464.966,584.345h12.347a.58.58,0,0,1,.571.571v27.036a.58.58,0,0,1-.571.571H464.966a.527.527,0,0,1-.386-.153l-.019-.018-.011-.011a.526.526,0,0,1-.155-.389V584.916A.58.58,0,0,1,464.966,584.345Z" transform="translate(-372.336 -527.497)" fill="#d5e3e3"/>
            <path id="Path_5" data-name="Path 5" d="M466.8,544.785c3.534-2.056,11.054-1.266,11.089,3.932.011,1.722,0,3.445,0,5.167a.58.58,0,0,1-.571.572H464.966a.526.526,0,0,1-.386-.153l-.019-.018-.011-.011a.527.527,0,0,1-.155-.389v-4.595A4.688,4.688,0,0,1,466.8,544.785Z" transform="translate(-372.336 -500.933)" fill="#d5e3e3"/>
            <path id="Path_6" data-name="Path 6" d="M198.23,511v6.187a1.143,1.143,0,0,0,2.285,0h122.4a1.143,1.143,0,0,0,2.285,0V511a1.161,1.161,0,0,0-.7-1.051V497.661h1.565a.58.58,0,0,0,.571-.571v-2.523a.58.58,0,0,0-.571-.571h-.472a5.273,5.273,0,0,0-4.9-4.948,5.9,5.9,0,0,0-3.785-3.474V428.056h4.707a1.159,1.159,0,0,0,1.142-1.142v-5.706a1.159,1.159,0,0,0-1.142-1.142c-.069,0-.138,0-.206,0-4.853-.186-9.75,0-14.605,0H201.622a1.054,1.054,0,0,0-.778.31c-.008.007-.015.014-.022.021s-.026.025-.037.039a1.051,1.051,0,0,0-.306.772v5.706a1.159,1.159,0,0,0,1.142,1.142c.069,0,.138,0,.206,0,1.485.057,2.974.077,4.465.08.007,2.228.07,4.461.07,6.678v51.967a6.616,6.616,0,0,0-5.431,6.3h-.6a.58.58,0,0,0-.571.571v2.835a.527.527,0,0,0,.155.389l.01.011.02.018a.528.528,0,0,0,.386.153h1.83v12.8h-2.789A1.159,1.159,0,0,0,198.23,511Zm90.4-45.85c1.011-3.27,4.951-4.6,8.03-4.64,3.3,0,7.515.881,8.838,4.388.616,1.631.281,3.908.281,5.607v38.868H288.433V469.754A16.465,16.465,0,0,1,288.629,465.151Zm-75.42-12.731a1.159,1.159,0,0,1,1.143-1.143h66.911a1.159,1.159,0,0,1,1.142,1.143v52.431a1.159,1.159,0,0,1-1.142,1.142H214.352a1.054,1.054,0,0,1-.773-.305c-.014-.011-.026-.025-.039-.037l-.021-.022a1.055,1.055,0,0,1-.31-.778V452.421Z" transform="translate(-198.23 -419.983)" fill="#d5e3e3"/>
          </g>
          <path id="Path_7" data-name="Path 7" d="M690.156,473.661c-2.015-3.685-3.807-8.967-8.773-9.234a6.842,6.842,0,0,0-2.026.193V407.763c1.614,0,3.226-.018,4.834-.08.068,0,.136,0,.2,0a1.149,1.149,0,0,0,1.133-1.133v-5.656a1.045,1.045,0,0,0-.3-.766c-.011-.013-.024-.026-.037-.039s-.014-.014-.022-.02a1.044,1.044,0,0,0-.772-.307h-5.038V388.255c1.437.167,2.874.318,4.311.434.068.005.135.016.2.024a1.149,1.149,0,0,0,1.259-.991l.668-5.617a1.044,1.044,0,0,0-.21-.8c-.01-.015-.021-.028-.032-.043l-.019-.023a1.045,1.045,0,0,0-.73-.4l-11.786-1.4-28.177-3.354-34.063-4.054-29.443-3.5c-4.76-.567-9.539-1.32-14.318-1.7-.068-.005-.136-.016-.2-.024a1.149,1.149,0,0,0-1.259.991q-.334,2.808-.669,5.617a1.149,1.149,0,0,0,.991,1.259l4.4.523v24.488c-1.549,0-3.1.021-4.638.08-.068,0-.136,0-.2,0a1.149,1.149,0,0,0-1.133,1.133v5.656a1.149,1.149,0,0,0,1.133,1.133h4.842v77.9H688.453a7.2,7.2,0,0,0,2.877-2.321C693.52,480.212,691.747,476.535,690.156,473.661Zm-88.274-29.9H583.094V409.521h18.788Zm30.909,0H614V409.521h18.788Zm30.909,0H644.912V409.521H663.7Z" transform="translate(-385.746 -366.796)" fill="#d5e3e3"/>
          <g id="Group_30" data-name="Group 30" transform="translate(0 32.329)">
            <g id="Group_17" data-name="Group 17">
              <g id="Group_16" data-name="Group 16">
                <g id="Group_15" data-name="Group 15">
                  <g id="Group_14" data-name="Group 14">
                    <g id="Group_13" data-name="Group 13">
                      <g id="Group_12" data-name="Group 12">
                        <g id="Group_11" data-name="Group 11">
                          <g id="Group_10" data-name="Group 10">
                            <g id="Group_9" data-name="Group 9">
                              <g id="Group_8" data-name="Group 8">
                                <g id="Group_7" data-name="Group 7">
                                  <g id="Group_6" data-name="Group 6">
                                    <g id="Group_5" data-name="Group 5">
                                      <g id="Group_4" data-name="Group 4">
                                        <path id="Path_8" data-name="Path 8" d="M107.3,491.974a27.577,27.577,0,1,1-22.154-27.049A27.854,27.854,0,0,1,107.3,491.974c.026,2.667,4.173,2.674,4.147,0a31.728,31.728,0,1,0-25.475,31.1c14.745-2.859,25.331-16.241,25.475-31.1C111.468,489.3,107.321,489.3,107.3,491.974Z" transform="translate(-48.055 -460.267)" fill="#d5e3e3"/>
                                      </g>
                                    </g>
                                  </g>
                                </g>
                              </g>
                            </g>
                          </g>
                        </g>
                      </g>
                    </g>
                  </g>
                </g>
              </g>
            </g>
            <g id="Group_29" data-name="Group 29" transform="translate(2.708 2.752)">
              <g id="Group_28" data-name="Group 28">
                <g id="Group_27" data-name="Group 27">
                  <g id="Group_26" data-name="Group 26">
                    <g id="Group_25" data-name="Group 25">
                      <g id="Group_24" data-name="Group 24">
                        <g id="Group_23" data-name="Group 23">
                          <g id="Group_22" data-name="Group 22">
                            <g id="Group_21" data-name="Group 21">
                              <g id="Group_20" data-name="Group 20">
                                <g id="Group_19" data-name="Group 19">
                                  <g id="Group_18" data-name="Group 18">
                                    <circle id="Ellipse_8" data-name="Ellipse 8" cx="28.954" cy="28.954" r="28.954" fill="#d5e3e3"/>
                                  </g>
                                </g>
                              </g>
                            </g>
                          </g>
                        </g>
                      </g>
                    </g>
                  </g>
                </g>
              </g>
            </g>
            <path id="Path_9" data-name="Path 9" d="M129.926,562.893l-6.981,5.549a9.473,9.473,0,0,0-1.7-2.079l-5.605-6.44c-1.262-1.45-3.363.666-2.108,2.108l6.57,7.548v1.362a1.124,1.124,0,0,0,0,.78V617.38a1.492,1.492,0,0,0,2.982,0V572.12L132.034,565C133.536,563.808,131.413,561.711,129.926,562.893Z" transform="translate(-90.63 -525.137)" fill="#6d6d6d"/>
          </g>
          <g id="Group_57" data-name="Group 57" transform="translate(36.077 2.566)">
            <g id="Group_44" data-name="Group 44">
              <g id="Group_43" data-name="Group 43">
                <g id="Group_42" data-name="Group 42">
                  <g id="Group_41" data-name="Group 41">
                    <g id="Group_40" data-name="Group 40">
                      <g id="Group_39" data-name="Group 39">
                        <g id="Group_38" data-name="Group 38">
                          <g id="Group_37" data-name="Group 37">
                            <g id="Group_36" data-name="Group 36">
                              <g id="Group_35" data-name="Group 35">
                                <g id="Group_34" data-name="Group 34">
                                  <g id="Group_33" data-name="Group 33">
                                    <g id="Group_32" data-name="Group 32">
                                      <g id="Group_31" data-name="Group 31">
                                        <path id="Path_10" data-name="Path 10" d="M211.6,405.921a27.577,27.577,0,1,1-22.154-27.049A27.854,27.854,0,0,1,211.6,405.921c.026,2.667,4.173,2.674,4.147,0a31.728,31.728,0,1,0-25.475,31.1c14.745-2.859,25.331-16.242,25.475-31.1C215.774,403.251,211.627,403.249,211.6,405.921Z" transform="translate(-152.361 -374.214)" fill="#b7dbe0"/>
                                      </g>
                                    </g>
                                  </g>
                                </g>
                              </g>
                            </g>
                          </g>
                        </g>
                      </g>
                    </g>
                  </g>
                </g>
              </g>
            </g>
            <g id="Group_56" data-name="Group 56" transform="translate(2.708 2.752)">
              <g id="Group_55" data-name="Group 55">
                <g id="Group_54" data-name="Group 54">
                  <g id="Group_53" data-name="Group 53">
                    <g id="Group_52" data-name="Group 52">
                      <g id="Group_51" data-name="Group 51">
                        <g id="Group_50" data-name="Group 50">
                          <g id="Group_49" data-name="Group 49">
                            <g id="Group_48" data-name="Group 48">
                              <g id="Group_47" data-name="Group 47">
                                <g id="Group_46" data-name="Group 46">
                                  <g id="Group_45" data-name="Group 45">
                                    <circle id="Ellipse_9" data-name="Ellipse 9" cx="28.954" cy="28.954" r="28.954" fill="#b6dbe0"/>
                                  </g>
                                </g>
                              </g>
                            </g>
                          </g>
                        </g>
                      </g>
                    </g>
                  </g>
                </g>
              </g>
            </g>
            <path id="Path_11" data-name="Path 11" d="M234.233,476.84l-6.981,5.549a9.471,9.471,0,0,0-1.7-2.079l-5.605-6.44c-1.262-1.45-3.363.666-2.108,2.108l6.57,7.548v1.362a1.123,1.123,0,0,0,0,.78v45.658a1.492,1.492,0,0,0,2.982,0v-45.26l8.955-7.118C237.843,477.755,235.72,475.658,234.233,476.84Z" transform="translate(-194.937 -439.084)" fill="#6d6d6d"/>
          </g>
          <g id="Group_84" data-name="Group 84" transform="translate(295.079 42.125)">
            <g id="Group_71" data-name="Group 71">
              <g id="Group_70" data-name="Group 70">
                <g id="Group_69" data-name="Group 69">
                  <g id="Group_68" data-name="Group 68">
                    <g id="Group_67" data-name="Group 67">
                      <g id="Group_66" data-name="Group 66">
                        <g id="Group_65" data-name="Group 65">
                          <g id="Group_64" data-name="Group 64">
                            <g id="Group_63" data-name="Group 63">
                              <g id="Group_62" data-name="Group 62">
                                <g id="Group_61" data-name="Group 61">
                                  <g id="Group_60" data-name="Group 60">
                                    <g id="Group_59" data-name="Group 59">
                                      <g id="Group_58" data-name="Group 58">
                                        <path id="Path_12" data-name="Path 12" d="M958.331,519.169a26.6,26.6,0,1,1-21.366-26.086,26.864,26.864,0,0,1,21.366,26.086c.025,2.572,4.025,2.579,4,0a30.6,30.6,0,1,0-24.568,30c14.22-2.757,24.43-15.664,24.568-30C962.356,516.594,958.357,516.592,958.331,519.169Z" transform="translate(-901.198 -488.59)" fill="#b7dbe0"/>
                                      </g>
                                    </g>
                                  </g>
                                </g>
                              </g>
                            </g>
                          </g>
                        </g>
                      </g>
                    </g>
                  </g>
                </g>
              </g>
            </g>
            <g id="Group_83" data-name="Group 83" transform="translate(2.612 2.654)">
              <g id="Group_82" data-name="Group 82">
                <g id="Group_81" data-name="Group 81">
                  <g id="Group_80" data-name="Group 80">
                    <g id="Group_79" data-name="Group 79">
                      <g id="Group_78" data-name="Group 78">
                        <g id="Group_77" data-name="Group 77">
                          <g id="Group_76" data-name="Group 76">
                            <g id="Group_75" data-name="Group 75">
                              <g id="Group_74" data-name="Group 74">
                                <g id="Group_73" data-name="Group 73">
                                  <g id="Group_72" data-name="Group 72">
                                    <circle id="Ellipse_10" data-name="Ellipse 10" cx="27.924" cy="27.924" r="27.924" fill="#b7dbe0"/>
                                  </g>
                                </g>
                              </g>
                            </g>
                          </g>
                        </g>
                      </g>
                    </g>
                  </g>
                </g>
              </g>
            </g>
            <path id="Path_13" data-name="Path 13" d="M980.158,587.566l-6.733,5.352a9.141,9.141,0,0,0-1.643-2l-5.406-6.211c-1.217-1.4-3.244.642-2.033,2.033l6.337,7.28v1.314a1.083,1.083,0,0,0,0,.752v44.034a1.438,1.438,0,0,0,2.875,0v-43.65l8.637-6.865C983.639,588.448,981.592,586.425,980.158,587.566Z" transform="translate(-942.259 -551.153)" fill="#6d6d6d"/>
          </g>
        </g>
        <rect id="Rectangle_355" data-name="Rectangle 355" width="3.442" height="13.792" rx="1.721" transform="translate(162.541 447.03)" fill="#444445"/>
        <g id="Group_87" data-name="Group 87" transform="translate(196.826 454.657)">
          <g id="Group_86" data-name="Group 86" transform="translate(0 0)">
            <path id="Path_14" data-name="Path 14" d="M508.214,624.466h0a1.575,1.575,0,0,1,.343,1.727c-.722,1.7-5.221,4.371-6.43,5a3.2,3.2,0,0,1-.391.172l-16.067,5.776a3.151,3.151,0,0,1-3.373-.82h0a3.15,3.15,0,0,1,1.478-5.184Z" transform="translate(-480.323 -623.206)" fill="#368dd8"/>
            <path id="Path_15" data-name="Path 15" d="M482.468,636.074a4.279,4.279,0,0,1-1.125-8.406l25.072-6.844.463.463a2.69,2.69,0,0,1,.583,2.964c-1.027,2.422-6.887,5.531-6.947,5.561a4.317,4.317,0,0,1-.529.232l-16.069,5.777A4.286,4.286,0,0,1,482.468,636.074Zm22.877-12.621-23.408,6.39a2.023,2.023,0,1,0,1.217,3.855l16.066-5.776a2.187,2.187,0,0,0,.254-.112C501.479,626.766,504.766,624.537,505.345,623.453Z" transform="translate(-478.189 -620.824)" fill="#444445"/>
          </g>
        </g>
        <g id="Group_88" data-name="Group 88" transform="translate(180.223 450.739)">
          <path id="Path_16" data-name="Path 16" d="M434.1,621.672l27.978-7.62a18.138,18.138,0,0,1,15.128,2.614h0a1.288,1.288,0,0,1-.468,2.317l-25.8,7.2Z" transform="translate(-432.743 -612.059)" fill="#368dd8"/>
          <path id="Path_17" data-name="Path 17" d="M448.374,624.97a1.347,1.347,0,0,1-.35-.046l-16.836-4.51a1.353,1.353,0,0,1-.005-2.612l27.978-7.62a19.446,19.446,0,0,1,16.256,2.809,2.64,2.64,0,0,1-.911,4.74l-25.767,7.19A1.346,1.346,0,0,1,448.374,624.97ZM436.726,619.1l11.64,3.118,25.387-7.083a16.744,16.744,0,0,0-13.882-2.338Z" transform="translate(-430.185 -609.494)" fill="#444445"/>
        </g>
        <path id="Path_18" data-name="Path 18" d="M194.6,553.946c-4.969,3.983-8.112,14-9.981,23.032h32.961V546.387C208.973,547.042,200.935,548.869,194.6,553.946Z" transform="translate(-89.331 -117.475)" fill="#dff1e4" opacity="0.75"/>
        <g id="Group_207" data-name="Group 207" transform="translate(69.988 420.668)">
          <g id="Group_145" data-name="Group 145" transform="translate(18.949 87.636)" opacity="0.5" style="mix-blend-mode: multiply;isolation: isolate">
            <g id="Group_102" data-name="Group 102" opacity="0.48">
              <g id="Group_101" data-name="Group 101">
                <g id="Group_100" data-name="Group 100">
                  <g id="Group_99" data-name="Group 99">
                    <g id="Group_98" data-name="Group 98">
                      <g id="Group_97" data-name="Group 97">
                        <g id="Group_96" data-name="Group 96">
                          <g id="Group_95" data-name="Group 95">
                            <g id="Group_94" data-name="Group 94">
                              <g id="Group_93" data-name="Group 93">
                                <g id="Group_92" data-name="Group 92">
                                  <g id="Group_91" data-name="Group 91">
                                    <g id="Group_90" data-name="Group 90">
                                      <g id="Group_89" data-name="Group 89">
                                        <path id="Path_19" data-name="Path 19" d="M225.392,778.966H167.237c-.539,0-.98-.683-.98-1.518h0c0-.835.441-1.518.98-1.518h58.155c.539,0,.98.683.98,1.518h0C226.372,778.283,225.931,778.966,225.392,778.966Z" transform="translate(-166.257 -775.93)" fill="gray"/>
                                      </g>
                                    </g>
                                  </g>
                                </g>
                              </g>
                            </g>
                          </g>
                        </g>
                      </g>
                    </g>
                  </g>
                </g>
              </g>
            </g>
            <g id="Group_116" data-name="Group 116" transform="translate(62.206)" opacity="0.48">
              <g id="Group_115" data-name="Group 115">
                <g id="Group_114" data-name="Group 114">
                  <g id="Group_113" data-name="Group 113">
                    <g id="Group_112" data-name="Group 112">
                      <g id="Group_111" data-name="Group 111">
                        <g id="Group_110" data-name="Group 110">
                          <g id="Group_109" data-name="Group 109">
                            <g id="Group_108" data-name="Group 108">
                              <g id="Group_107" data-name="Group 107">
                                <g id="Group_106" data-name="Group 106">
                                  <g id="Group_105" data-name="Group 105">
                                    <g id="Group_104" data-name="Group 104">
                                      <g id="Group_103" data-name="Group 103">
                                        <path id="Path_20" data-name="Path 20" d="M348.528,778.966H347.09c-.539,0-.98-.683-.98-1.518h0c0-.835.441-1.518.98-1.518h1.437c.539,0,.98.683.98,1.518h0C349.508,778.283,349.067,778.966,348.528,778.966Z" transform="translate(-346.11 -775.93)" fill="gray"/>
                                      </g>
                                    </g>
                                  </g>
                                </g>
                              </g>
                            </g>
                          </g>
                        </g>
                      </g>
                    </g>
                  </g>
                </g>
              </g>
            </g>
            <g id="Group_130" data-name="Group 130" transform="translate(55.803 7.893)" opacity="0.48">
              <g id="Group_129" data-name="Group 129">
                <g id="Group_128" data-name="Group 128">
                  <g id="Group_127" data-name="Group 127">
                    <g id="Group_126" data-name="Group 126">
                      <g id="Group_125" data-name="Group 125">
                        <g id="Group_124" data-name="Group 124">
                          <g id="Group_123" data-name="Group 123">
                            <g id="Group_122" data-name="Group 122">
                              <g id="Group_121" data-name="Group 121">
                                <g id="Group_120" data-name="Group 120">
                                  <g id="Group_119" data-name="Group 119">
                                    <g id="Group_118" data-name="Group 118">
                                      <g id="Group_117" data-name="Group 117">
                                        <path id="Path_21" data-name="Path 21" d="M385.228,801.988H328.642c-.575,0-1.046-.728-1.046-1.619h0c0-.89.47-1.619,1.046-1.619h56.587c.575,0,1.046.729,1.046,1.619h0C386.274,801.26,385.8,801.988,385.228,801.988Z" transform="translate(-327.596 -798.75)" fill="gray"/>
                                      </g>
                                    </g>
                                  </g>
                                </g>
                              </g>
                            </g>
                          </g>
                        </g>
                      </g>
                    </g>
                  </g>
                </g>
              </g>
            </g>
            <g id="Group_144" data-name="Group 144" transform="translate(116.18 7.893)" opacity="0.48">
              <g id="Group_143" data-name="Group 143" transform="translate(0)">
                <g id="Group_142" data-name="Group 142">
                  <g id="Group_141" data-name="Group 141">
                    <g id="Group_140" data-name="Group 140">
                      <g id="Group_139" data-name="Group 139">
                        <g id="Group_138" data-name="Group 138">
                          <g id="Group_137" data-name="Group 137">
                            <g id="Group_136" data-name="Group 136">
                              <g id="Group_135" data-name="Group 135">
                                <g id="Group_134" data-name="Group 134">
                                  <g id="Group_133" data-name="Group 133">
                                    <g id="Group_132" data-name="Group 132">
                                      <g id="Group_131" data-name="Group 131">
                                        <path id="Path_22" data-name="Path 22" d="M505.819,801.988h-2.614c-.575,0-1.045-.728-1.045-1.619h0c0-.89.47-1.619,1.045-1.619h2.614c.575,0,1.046.729,1.046,1.619h0C506.865,801.26,506.394,801.988,505.819,801.988Z" transform="translate(-502.16 -798.75)" fill="gray"/>
                                      </g>
                                    </g>
                                  </g>
                                </g>
                              </g>
                            </g>
                          </g>
                        </g>
                      </g>
                    </g>
                  </g>
                </g>
              </g>
            </g>
          </g>
          <g id="Group_146" data-name="Group 146" transform="translate(78.913 24.154)">
            <path id="Path_23" data-name="Path 23" d="M357.593,594.362a2.682,2.682,0,0,0-2.137-1.247,5.945,5.945,0,0,0-3.868.869c-1.626,1-2.5,2.755-3.536,4.295-2.568,3.816-4.986,7.726-7.476,11.594a1.691,1.691,0,0,0,2.844,1.83c1.6-2.481,3.215-5.021,4.807-7.534q1.221-1.927,2.438-3.855a20.486,20.486,0,0,1,1.242-1.971c.365-.452.939-.71,1.277-1.195a2.792,2.792,0,0,0,.2-.329,1.011,1.011,0,0,1,.234-.349.923.923,0,0,1,.645-.111,8.713,8.713,0,0,0,2.146-.135C357.35,596.047,358.117,595.379,357.593,594.362Z" transform="translate(-340.071 -592.834)" fill="#d1b79e"/>
            <path id="Path_24" data-name="Path 24" d="M341.55,612.268a1.926,1.926,0,0,1-1.618-2.969q1.19-1.848,2.365-3.705c1.653-2.6,3.362-5.29,5.114-7.893.2-.3.4-.605.591-.913a10.1,10.1,0,0,1,3.017-3.45,6.189,6.189,0,0,1,4.022-.9,2.877,2.877,0,0,1,2.316,1.372h0a1.368,1.368,0,0,1,.074,1.275,1.914,1.914,0,0,1-1.426.928,8.9,8.9,0,0,1-2.2.139.771.771,0,0,0-.483.059.711.711,0,0,0-.149.229l-.022.043a3.023,3.023,0,0,1-.214.357,3.347,3.347,0,0,1-.725.7,3.4,3.4,0,0,0-.562.509,10.133,10.133,0,0,0-.827,1.278c-.133.228-.264.455-.4.671q-1.218,1.928-2.438,3.856c-1.794,2.831-3.366,5.3-4.807,7.535A1.927,1.927,0,0,1,341.55,612.268ZM354.3,592.86a5.812,5.812,0,0,0-3.034.879,9.742,9.742,0,0,0-2.866,3.3c-.2.311-.4.622-.6.924-1.748,2.6-3.456,5.284-5.107,7.882q-1.18,1.856-2.366,3.707a1.455,1.455,0,0,0,2.448,1.575c1.44-2.238,3.012-4.7,4.806-7.532q1.221-1.927,2.437-3.855c.133-.211.261-.432.391-.655a10.458,10.458,0,0,1,.868-1.338,3.8,3.8,0,0,1,.638-.585,2.942,2.942,0,0,0,.629-.6,2.556,2.556,0,0,0,.181-.3l.02-.04a1.081,1.081,0,0,1,.276-.386,1.116,1.116,0,0,1,.807-.162,8.43,8.43,0,0,0,2.088-.131,1.484,1.484,0,0,0,1.09-.672.922.922,0,0,0-.069-.851,2.519,2.519,0,0,0-1.958-1.12A5.265,5.265,0,0,0,354.3,592.86Z" transform="translate(-339.626 -592.388)" fill="#444445"/>
          </g>
          <g id="Group_147" data-name="Group 147" transform="translate(78.182 31.006)">
            <path id="Path_25" data-name="Path 25" d="M345.023,613.114l4,2.706-6.708,9.583-3.89-3.157Z" transform="translate(-338.111 -612.798)" fill="#fff"/>
            <path id="Path_26" data-name="Path 26" d="M341.719,625.121a.315.315,0,0,1-.2-.071l-3.89-3.156a.317.317,0,0,1-.057-.431l6.6-9.132a.317.317,0,0,1,.434-.077l4,2.706a.316.316,0,0,1,.082.443l-6.708,9.583a.315.315,0,0,1-.215.132A.3.3,0,0,1,341.719,625.121Zm-3.458-3.53,3.394,2.755,6.329-9.041L344.5,612.95Z" transform="translate(-337.513 -612.2)" fill="#444445"/>
          </g>
          <g id="Group_181" data-name="Group 181" transform="translate(64.668 3.367)">
            <g id="Group_148" data-name="Group 148" transform="translate(0 27.389)">
              <path id="Path_27" data-name="Path 27" d="M314.26,636.75H299.489V624.015c0-5.291,4.29-11.49,9.581-11.49h2.59a2.6,2.6,0,0,1,2.6,2.6Z" transform="translate(-299.127 -612.163)" fill="#fff"/>
              <path id="Path_28" data-name="Path 28" d="M313.575,636.427H298.8a.362.362,0,0,1-.362-.362V623.33c0-5.369,4.435-11.852,9.943-11.852h2.59a2.965,2.965,0,0,1,2.962,2.962v21.625A.362.362,0,0,1,313.575,636.427Zm-14.408-.724h14.045V614.44a2.24,2.24,0,0,0-2.237-2.237h-2.59c-5.106,0-9.218,6.088-9.218,11.128Z" transform="translate(-298.442 -611.478)" fill="#444445"/>
            </g>
            <g id="Group_153" data-name="Group 153" transform="translate(3.663 30.94)">
              <g id="Group_152" data-name="Group 152">
                <g id="Group_151" data-name="Group 151">
                  <g id="Group_150" data-name="Group 150">
                    <g id="Group_149" data-name="Group 149">
                      <path id="Path_29" data-name="Path 29" d="M315.627,633.2v-7.852a2.991,2.991,0,1,0-5.983,0V633.2Z" transform="translate(-309.433 -622.145)" fill="#fff"/>
                      <path id="Path_30" data-name="Path 30" d="M315.227,633.011h-5.982a.211.211,0,0,1-.211-.211v-7.853a3.2,3.2,0,0,1,6.405,0V632.8A.211.211,0,0,1,315.227,633.011Zm-5.771-.423h5.56v-7.641a2.78,2.78,0,1,0-5.56,0Z" transform="translate(-309.033 -621.745)" fill="#444445"/>
                    </g>
                  </g>
                </g>
              </g>
            </g>
            <g id="Group_154" data-name="Group 154" transform="translate(7.245 21.227)">
              <path id="Rectangle_356" data-name="Rectangle 356" d="M2.269,0H4.325A2.269,2.269,0,0,1,6.594,2.269V7.511A2.269,2.269,0,0,1,4.325,9.78h0A4.325,4.325,0,0,1,0,5.455V2.269A2.269,2.269,0,0,1,2.269,0Z" transform="translate(0.247 0.247)" fill="#d1b79e"/>
              <path id="Path_31" data-name="Path 31" d="M323.962,603.935a4.577,4.577,0,0,1-4.572-4.572v-3.186a2.519,2.519,0,0,1,2.516-2.516h2.056a2.519,2.519,0,0,1,2.516,2.516v5.242A2.519,2.519,0,0,1,323.962,603.935Zm-2.056-9.78a2.024,2.024,0,0,0-2.022,2.022v3.186a4.083,4.083,0,0,0,4.078,4.078,2.024,2.024,0,0,0,2.022-2.022v-5.242a2.024,2.024,0,0,0-2.022-2.022Z" transform="translate(-319.39 -593.661)" fill="#444445"/>
            </g>
            <g id="Group_158" data-name="Group 158" transform="translate(3.58 3.807)">
              <g id="Group_157" data-name="Group 157">
                <g id="Group_156" data-name="Group 156">
                  <path id="Path_32" data-name="Path 32" d="M326.962,561.383c-.01,3.174-3.872,5.74-8.625,5.729h-.166c-4.753-.01-8.6-2.593-8.588-5.767l.037-11.606c.01-3.175,3.872-5.74,8.625-5.729h.166c4.753.011,8.6,2.593,8.588,5.767Z" transform="translate(-309.309 -543.762)" fill="#c9ab98"/>
                  <path id="Path_33" data-name="Path 33" d="M340.92,544.5v22.761c3.746-.614,6.532-2.862,6.541-5.556L347.5,550.1C347.506,547.385,344.7,545.112,340.92,544.5Z" transform="translate(-329.808 -544.082)" fill="#d1b79e"/>
                  <g id="Group_155" data-name="Group 155">
                    <path id="Path_34" data-name="Path 34" d="M318.059,566.99h-.2a11.229,11.229,0,0,1-6.182-1.727,5.112,5.112,0,0,1-2.568-4.176l.037-11.606c.01-3.238,3.937-5.865,8.758-5.865h.2a11.231,11.231,0,0,1,6.182,1.727,5.112,5.112,0,0,1,2.569,4.176l-.037,11.606C326.807,564.364,322.881,566.99,318.059,566.99Zm-.151-23.1c-4.643,0-8.424,2.505-8.433,5.593l-.037,11.606a4.86,4.86,0,0,0,2.447,3.964,10.861,10.861,0,0,0,5.979,1.667h.2c4.643,0,8.423-2.505,8.433-5.594h0l.037-11.606a4.86,4.86,0,0,0-2.447-3.964,10.861,10.861,0,0,0-5.979-1.667h-.195Z" transform="translate(-309.002 -543.505)" fill="#444445"/>
                    <path id="Path_35" data-name="Path 35" d="M317.849,566.892h-.2a11.341,11.341,0,0,1-6.244-1.746,5.218,5.218,0,0,1-2.618-4.269l.037-11.606c.01-3.295,3.989-5.975,8.869-5.975h.2a11.339,11.339,0,0,1,6.244,1.746,5.217,5.217,0,0,1,2.618,4.269l-.037,11.606C326.708,564.212,322.729,566.892,317.849,566.892Zm-.151-23.485v.111c-4.758,0-8.637,2.581-8.647,5.754l-.037,11.606a5.006,5.006,0,0,0,2.52,4.084,11.119,11.119,0,0,0,6.12,1.709h.2c4.758,0,8.637-2.581,8.647-5.754l.037-11.606a5.006,5.006,0,0,0-2.52-4.084,11.117,11.117,0,0,0-6.12-1.708h-.166Zm.151,23.214h-.2a10.973,10.973,0,0,1-6.041-1.686,4.967,4.967,0,0,1-2.5-4.057l.037-11.606c.01-3.145,3.843-5.7,8.544-5.7h.2a10.972,10.972,0,0,1,6.041,1.686,4.967,4.967,0,0,1,2.5,4.056l-.037,11.5h.051v.222h-.053C326.293,564.122,322.5,566.621,317.849,566.621Zm-.151-22.831c-4.579,0-8.313,2.46-8.322,5.483l-.037,11.606a4.755,4.755,0,0,0,2.4,3.872,10.75,10.75,0,0,0,5.918,1.648h.195c4.579,0,8.313-2.46,8.323-5.483v-.11l.037-11.5a4.754,4.754,0,0,0-2.4-3.872,10.753,10.753,0,0,0-5.918-1.648Z" transform="translate(-308.792 -543.296)" fill="#444445"/>
                  </g>
                </g>
              </g>
            </g>
            <g id="Group_161" data-name="Group 161" transform="translate(10.386 13.869)">
              <g id="Group_160" data-name="Group 160">
                <g id="Group_159" data-name="Group 159">
                  <path id="Path_36" data-name="Path 36" d="M329.641,572.975a.585.585,0,1,1-.584-.587A.585.585,0,0,1,329.641,572.975Z" transform="translate(-328.471 -572.388)" fill="#444445"/>
                </g>
              </g>
            </g>
            <g id="Group_164" data-name="Group 164" transform="translate(18.837 13.869)">
              <g id="Group_163" data-name="Group 163">
                <g id="Group_162" data-name="Group 162">
                  <path id="Path_37" data-name="Path 37" d="M354.075,572.975a.585.585,0,1,1-.583-.587A.585.585,0,0,1,354.075,572.975Z" transform="translate(-352.905 -572.388)" fill="#444445"/>
                </g>
              </g>
            </g>
            <g id="Group_165" data-name="Group 165" transform="translate(8.981 17.907)">
              <path id="Path_38" data-name="Path 38" d="M350.566,584.063a1.292,1.292,0,1,0,1.491,1.277A1.4,1.4,0,0,0,350.566,584.063Z" transform="translate(-340.543 -584.063)" fill="#b07d77"/>
              <path id="Path_39" data-name="Path 39" d="M325.9,584.063a1.292,1.292,0,1,0,1.49,1.277A1.4,1.4,0,0,0,325.9,584.063Z" transform="translate(-324.408 -584.063)" fill="#b07d77"/>
            </g>
            <path id="Path_40" data-name="Path 40" d="M323.7,544.822c.121-.574.25-1.224.261-1.328a11.008,11.008,0,0,0-.017-2.477,18.83,18.83,0,0,0-2.923-7.629,3.816,3.816,0,0,0-1.324-1.1,2.777,2.777,0,0,1-1.492,1.094c-1.56.585-3.277.582-4.884,1.02a18.338,18.338,0,0,0-3.144,1.29,10.6,10.6,0,0,0-3.641,2.874,10.716,10.716,0,0,0-2.336,3.766c-.478,1.547-.12,3.492.09,5.081.133,1,.313,2,.514,2.991a4.274,4.274,0,0,0,.346,1.136,1.5,1.5,0,0,0,.862.777c0-1.2.026-2.394-.019-3.59a9.8,9.8,0,0,1,.359-3.4,7.534,7.534,0,0,1,.9-2.3,2.978,2.978,0,0,1,2.056-.936,25.374,25.374,0,0,1,9.939.433,5.681,5.681,0,0,1,2.253,1.07c.734.615,1.1,1.714,1.977,2.145A7.743,7.743,0,0,0,323.7,544.822Z" transform="translate(-302.055 -532.289)" fill="#444445"/>
            <g id="Group_166" data-name="Group 166" transform="translate(14.135 15.264)">
              <path id="Path_41" data-name="Path 41" d="M339.9,579.31a.857.857,0,0,1-.552-.188.12.12,0,1,1,.156-.183.672.672,0,0,0,.721.05.63.63,0,0,0,.317-.6.818.818,0,0,0-.419-.595,1.083,1.083,0,0,0-.336-.125l-.1-.019,0-1.106a.121.121,0,0,1,.12-.12.127.127,0,0,1,.12.121l0,.911a1.313,1.313,0,0,1,.313.131,1.045,1.045,0,0,1,.538.778.874.874,0,0,1-.438.838A.907.907,0,0,1,339.9,579.31Z" transform="translate(-339.309 -576.42)" fill="#444445"/>
            </g>
            <g id="Group_171" data-name="Group 171" transform="translate(6.665 11.043)">
              <g id="Group_167" data-name="Group 167">
                <circle id="Ellipse_11" data-name="Ellipse 11" cx="3.096" cy="3.096" r="3.096" transform="translate(0.344 0.344)" fill="#fff" opacity="0.45"/>
                <path id="Path_42" data-name="Path 42" d="M321.151,571.1a3.44,3.44,0,1,1,3.44-3.44A3.444,3.444,0,0,1,321.151,571.1Zm0-6.192a2.752,2.752,0,1,0,2.752,2.752A2.755,2.755,0,0,0,321.151,564.905Z" transform="translate(-317.711 -564.217)" fill="#444445"/>
              </g>
              <g id="Group_168" data-name="Group 168" transform="translate(9.608 0.156)">
                <circle id="Ellipse_12" data-name="Ellipse 12" cx="2.765" cy="2.765" r="2.765" transform="translate(0 5.383) rotate(-76.764)" fill="#fff" opacity="0.45"/>
                <path id="Path_43" data-name="Path 43" d="M349.293,571.541a3.072,3.072,0,1,1,3.072-3.072A3.076,3.076,0,0,1,349.293,571.541Zm0-5.53a2.458,2.458,0,1,0,2.457,2.458A2.461,2.461,0,0,0,349.293,566.011Z" transform="translate(-345.969 -565.145)" fill="#444445"/>
              </g>
              <g id="Group_170" data-name="Group 170" transform="translate(6.265 2.272)">
                <g id="Group_169" data-name="Group 169">
                  <path id="Path_44" data-name="Path 44" d="M339.665,572.178a.344.344,0,0,1-.225-.084,2.219,2.219,0,0,0-3.036-.01.344.344,0,0,1-.474-.5,2.882,2.882,0,0,1,3.96-.011.344.344,0,0,1-.225.6Z" transform="translate(-335.823 -570.787)" fill="#444445"/>
                </g>
              </g>
            </g>
            <g id="Group_172" data-name="Group 172" transform="translate(13.192 21.563)">
              <path id="Path_45" data-name="Path 45" d="M339.4,595.55a.314.314,0,0,1-.184-.059,2.522,2.522,0,0,0-1.945-.054c-.106.023-.209.046-.309.066a.318.318,0,1,1-.126-.624l.3-.064a3.009,3.009,0,0,1,2.45.157.318.318,0,0,1-.185.577Z" transform="translate(-336.582 -594.632)" fill="#424243"/>
            </g>
            <g id="Group_178" data-name="Group 178" transform="translate(1.527 14.025)">
              <g id="Group_175" data-name="Group 175">
                <g id="Group_174" data-name="Group 174">
                  <g id="Group_173" data-name="Group 173">
                    <path id="Path_46" data-name="Path 46" d="M305.146,577.374a2.589,2.589,0,0,1-1.7-.656,2.111,2.111,0,0,1-.592-1.573,2.265,2.265,0,0,1,2.3-2.307.337.337,0,0,1,.226.089.31.31,0,0,1,.094.224l-.01,3.911a.312.312,0,0,1-.307.311Zm-.3-3.881a1.635,1.635,0,0,0-1.369,1.654,1.513,1.513,0,0,0,.406,1.126,1.793,1.793,0,0,0,.954.445Z" transform="translate(-302.856 -572.839)" fill="#444445"/>
                    <path id="Path_47" data-name="Path 47" d="M306.46,573.687s-2.192.056-2.2,2,2.187,1.908,2.187,1.908Z" transform="translate(-303.776 -573.394)" fill="#c9ab98"/>
                  </g>
                </g>
              </g>
              <g id="Group_177" data-name="Group 177" transform="translate(1.052 0.863)">
                <g id="Group_176" data-name="Group 176">
                  <path id="Path_48" data-name="Path 48" d="M307.288,575.334a1.394,1.394,0,0,0-1.392,1.392,1.323,1.323,0,0,0,1.384,1.337Z" transform="translate(-305.897 -575.334)" fill="#af917e"/>
                </g>
              </g>
            </g>
            <g id="Group_179" data-name="Group 179" transform="translate(8.14 10.183)">
              <path id="Path_49" data-name="Path 49" d="M322.285,562.7a.276.276,0,0,1-.083-.545l2.31-.423a.28.28,0,0,1,.321.221.276.276,0,0,1-.221.321l-2.31.423Z" transform="translate(-321.976 -561.73)" fill="#424243"/>
            </g>
            <g id="Group_180" data-name="Group 180" transform="translate(17.699 10.95)">
              <path id="Path_50" data-name="Path 50" d="M349.778,564.433a.25.25,0,0,1,.157-.475l2.042.61a.254.254,0,0,1,.168.311.251.251,0,0,1-.312.168l-2.042-.61Z" transform="translate(-349.614 -563.948)" fill="#424243"/>
            </g>
          </g>
          <path id="Path_51" data-name="Path 51" d="M329.45,618.972c-2.194-5.125-4.647-9.656-11.256-11.1a97.23,97.23,0,0,0-20.479-2.215c-5.118,0-10.235.036-15.188.363v30.591h53.664C333.867,630.754,331.936,624.781,329.45,618.972Z" transform="translate(-223.363 -576.914)" fill="#dff1e4" opacity="0.75"/>
          <g id="Group_206" data-name="Group 206" transform="translate(0 0)">
            <path id="Path_52" data-name="Path 52" d="M283.375,570.98,251.137,564.2c-2.451-7.067-4.488-14.273-7.109-21.281-2.314-6.183-4.9-11.65-11.871-13.393a90.232,90.232,0,0,0-21.6-2.672c-16.207,0-32.4.372-43.943,9.557s-14.981,44.946-14.981,48.266v14.75H287.759a7.447,7.447,0,0,0,7.447-7.447v-6.429A14.894,14.894,0,0,0,283.375,570.98ZM163.042,564.2c1.869-9.037,5.012-19.049,9.981-23.032,9.5-7.613,22.825-7.922,36.162-7.922a73.753,73.753,0,0,1,17.775,2.215c5.736,1.445,7.865,5.976,9.769,11.1,2.158,5.808,3.834,11.782,5.851,17.639Z" transform="translate(-137.742 -525.37)" fill="#368dd8"/>
            <path id="Path_53" data-name="Path 53" d="M280.865,566.705s-5.869-1.317-12.593-2.73l-5.02,1.419a.316.316,0,0,0,.02.613l16.98,3.613A13.405,13.405,0,0,1,290.9,582.739v6.429a5.958,5.958,0,0,1-5.958,5.958H150.306v-13.26c0-3.015,3.457-38.376,14.419-47.1,10.728-8.539,25.828-9.233,43.015-9.233a88.989,88.989,0,0,1,21.238,2.628c6.3,1.574,8.633,6.578,10.838,12.47,1.523,4.072,2.876,8.3,4.183,12.385.911,2.848,1.853,5.79,2.849,8.673a1.118,1.118,0,0,0,.737.967,3.258,3.258,0,0,0,2.195.133l5.949-1.687c-2.6-.546-5.188-.768-6.276-1-.909-2.657-1.776-5.368-2.617-8-1.319-4.121-2.682-8.382-4.231-12.521-2.412-6.446-5.215-12.393-12.9-14.316a92.005,92.005,0,0,0-21.961-2.717c-14.46,0-32.455,0-44.87,9.882-12.914,10.278-15.543,49.061-15.543,49.431v14.749a1.489,1.489,0,0,0,1.489,1.49H284.942a8.937,8.937,0,0,0,8.937-8.937v-6.429A16.457,16.457,0,0,0,280.865,566.705Z" transform="translate(-134.925 -522.553)" fill="#444445"/>
            <g id="Group_182" data-name="Group 182" transform="translate(99.504 52.7)">
              <path id="Path_54" data-name="Path 54" d="M423.563,679.227a20.113,20.113,0,0,1,19.637,24.38l-39.324-.235a20.114,20.114,0,0,1,19.687-24.145Z" transform="translate(-401.978 -677.738)" fill="#368dd8"/>
              <path id="Path_55" data-name="Path 55" d="M440.374,702.28l-39.324-.235a1.489,1.489,0,0,1-1.45-1.191,21.585,21.585,0,1,1,42.239.253,1.49,1.49,0,0,1-1.455,1.173Zm-39.323-1.725h0Zm1.089-4.05a18.826,18.826,0,0,0,.176,2.568l36.829.22a18.843,18.843,0,0,0,.207-2.788,18.606,18.606,0,0,0-37.212,0Z" transform="translate(-399.161 -674.921)" fill="#444445"/>
            </g>
            <g id="Group_183" data-name="Group 183" transform="translate(0 52.7)">
              <path id="Path_56" data-name="Path 56" d="M135.872,679.227a20.114,20.114,0,0,1,19.638,24.38l-39.325-.235a20.114,20.114,0,0,1,19.687-24.145Z" transform="translate(-114.287 -677.738)" fill="#368dd8"/>
              <path id="Path_57" data-name="Path 57" d="M152.683,702.28l-39.324-.235a1.489,1.489,0,0,1-1.45-1.191,21.585,21.585,0,1,1,42.239.253,1.489,1.489,0,0,1-1.455,1.173Zm-39.323-1.725h0Zm1.088-4.05a18.775,18.775,0,0,0,.176,2.568l36.828.22a18.849,18.849,0,0,0,.207-2.788,18.606,18.606,0,0,0-37.212,0Z" transform="translate(-111.47 -674.921)" fill="#444445"/>
            </g>
            <g id="Group_190" data-name="Group 190" transform="translate(105.03 58.226)">
              <g id="Group_186" data-name="Group 186" transform="translate(0 0)">
                <g id="Group_184" data-name="Group 184" transform="translate(0)">
                  <circle id="Ellipse_13" data-name="Ellipse 13" cx="13.7" cy="13.7" r="13.7" transform="translate(0 5.219) rotate(-10.98)" fill="#6d6d6d"/>
                </g>
                <g id="Group_185" data-name="Group 185" transform="translate(0.869 0.869)">
                  <path id="Path_58" data-name="Path 58" d="M417.651,708.6a15.19,15.19,0,1,1,15.19,15.19A15.207,15.207,0,0,1,417.651,708.6Zm2.979,0a12.211,12.211,0,1,0,12.211-12.211A12.224,12.224,0,0,0,420.63,708.6Z" transform="translate(-417.651 -693.411)" fill="#444445"/>
                </g>
              </g>
              <g id="Group_189" data-name="Group 189" transform="translate(8.365 8.365)">
                <g id="Group_187" data-name="Group 187" transform="translate(1.489 1.489)">
                  <path id="Path_59" data-name="Path 59" d="M443.63,725.594a6.2,6.2,0,1,0,6.2-6.2A6.2,6.2,0,0,0,443.63,725.594Z" transform="translate(-443.63 -719.39)" fill="#ededed"/>
                </g>
                <g id="Group_188" data-name="Group 188">
                  <path id="Path_60" data-name="Path 60" d="M439.324,722.778a7.694,7.694,0,1,1,7.693,7.694A7.7,7.7,0,0,1,439.324,722.778Zm2.979,0a4.715,4.715,0,1,0,4.715-4.715A4.72,4.72,0,0,0,442.3,722.778Z" transform="translate(-439.324 -715.084)" fill="#368dd8"/>
                </g>
              </g>
            </g>
            <g id="Group_197" data-name="Group 197" transform="translate(6.081 58.78)">
              <g id="Group_193" data-name="Group 193" transform="translate(0 0)">
                <g id="Group_191" data-name="Group 191" transform="translate(0)">
                  <circle id="Ellipse_14" data-name="Ellipse 14" cx="13.7" cy="13.7" r="13.7" transform="matrix(0.99, -0.142, 0.142, 0.99, 0, 3.885)" fill="#6d6d6d"/>
                </g>
                <g id="Group_192" data-name="Group 192" transform="translate(0.315 0.315)">
                  <path id="Path_61" data-name="Path 61" d="M129.96,708.6a15.19,15.19,0,1,1,15.19,15.19A15.207,15.207,0,0,1,129.96,708.6Zm2.979,0A12.211,12.211,0,1,0,145.15,696.39,12.224,12.224,0,0,0,132.939,708.6Z" transform="translate(-129.96 -693.411)" fill="#444445"/>
                </g>
              </g>
              <g id="Group_196" data-name="Group 196" transform="translate(7.811 7.811)">
                <g id="Group_194" data-name="Group 194" transform="translate(1.49 1.489)">
                  <path id="Path_62" data-name="Path 62" d="M155.94,725.594a6.2,6.2,0,1,0,6.2-6.2A6.2,6.2,0,0,0,155.94,725.594Z" transform="translate(-155.94 -719.39)" fill="#ededed"/>
                </g>
                <g id="Group_195" data-name="Group 195">
                  <path id="Path_63" data-name="Path 63" d="M151.633,722.778a7.694,7.694,0,1,1,7.694,7.694A7.7,7.7,0,0,1,151.633,722.778Zm2.979,0a4.715,4.715,0,1,0,4.715-4.715A4.72,4.72,0,0,0,154.612,722.778Z" transform="translate(-151.633 -715.084)" fill="#368dd8"/>
                </g>
              </g>
            </g>
            <g id="Group_198" data-name="Group 198" transform="translate(145.241 44.637)">
              <path id="Path_64" data-name="Path 64" d="M545.716,665.433a7.063,7.063,0,0,1-9.3-9.518A14.887,14.887,0,0,1,545.716,665.433Z" transform="translate(-534.215 -654.426)" fill="#ededed"/>
              <path id="Path_65" data-name="Path 65" d="M531.4,656.185a8.483,8.483,0,0,1,.866-3.739,1.488,1.488,0,0,1,1.827-.756,16.444,16.444,0,0,1,10.227,10.47,1.49,1.49,0,0,1-.8,1.81,8.554,8.554,0,0,1-12.121-7.785Zm3.092-1.115a5.51,5.51,0,0,0-.114,1.115,5.592,5.592,0,0,0,5.586,5.585,5.488,5.488,0,0,0,.986-.089A13.484,13.484,0,0,0,534.49,655.07Z" transform="translate(-531.398 -651.608)" fill="#444445"/>
            </g>
            <g id="Group_199" data-name="Group 199" transform="translate(147.18 60.411)">
              <rect id="Rectangle_357" data-name="Rectangle 357" width="13.514" height="6.025" transform="translate(15.004 7.515) rotate(180)" fill="#ededed"/>
              <path id="Path_66" data-name="Path 66" d="M537,704.731v-6.025a1.49,1.49,0,0,1,1.49-1.489h13.514a1.49,1.49,0,0,1,1.49,1.489v6.025a1.49,1.49,0,0,1-1.49,1.49H538.494A1.49,1.49,0,0,1,537,704.731Zm13.514-4.535H539.983v3.046h10.535Z" transform="translate(-537.004 -697.217)" fill="#444445"/>
            </g>
            <g id="Group_200" data-name="Group 200" transform="translate(88.646 32.95)">
              <path id="Path_67" data-name="Path 67" d="M369.257,620.8h13.091a1.49,1.49,0,0,0,0-2.979H369.257a1.49,1.49,0,0,0,0,2.979Z" transform="translate(-367.768 -617.819)" fill="#fff"/>
            </g>
            <g id="Group_201" data-name="Group 201" transform="translate(40.191 26.127)">
              <path id="Path_68" data-name="Path 68" d="M229.16,601.07h7.862a1.49,1.49,0,1,0,0-2.979H229.16a1.49,1.49,0,0,0,0,2.979Z" transform="translate(-227.671 -598.091)" fill="#fff"/>
            </g>
            <path id="Path_69" data-name="Path 69" d="M180.648,574.415a1.487,1.487,0,0,1-.3-1.242c2.545-12.3,6.08-20.343,10.508-23.893,10.29-8.249,25.152-8.249,37.093-8.249a75.462,75.462,0,0,1,18.139,2.26c6.448,1.624,8.873,6.831,10.8,12.026,1.276,3.436,2.4,6.97,3.484,10.387.762,2.4,1.549,4.876,2.379,7.285a1.489,1.489,0,0,1-1.408,1.974H181.8A1.489,1.489,0,0,1,180.648,574.415Zm76.884-7.808c-1.075-3.384-2.187-6.883-3.438-10.252-1.788-4.813-3.68-8.9-8.737-10.175h0a72.434,72.434,0,0,0-17.411-2.17c-14.092,0-26.469.572-35.23,7.595-3.616,2.9-6.739,9.926-9.069,20.38h75.62C258.669,570.183,258.094,568.373,257.532,566.606Zm-11.818-21.871h0Z" transform="translate(-156.502 -534.64)" fill="#444445"/>
            <g id="Group_202" data-name="Group 202" transform="translate(57.182 6.723)">
              <path id="Path_70" data-name="Path 70" d="M278.287,610.82a1.489,1.489,0,0,0,1.489-1.49V543.48a1.489,1.489,0,1,0-2.979,0v65.85A1.489,1.489,0,0,0,278.287,610.82Z" transform="translate(-276.798 -541.991)" fill="#444445"/>
            </g>
            <g id="Group_205" data-name="Group 205" transform="translate(42.343 44.637)">
              <g id="Group_203" data-name="Group 203">
                <path id="Path_71" data-name="Path 71" d="M235.385,654.588h8.006a1.49,1.49,0,0,0,0-2.979h-8.006a1.49,1.49,0,1,0,0,2.979Z" transform="translate(-233.895 -651.609)" fill="#444445"/>
              </g>
              <g id="Group_204" data-name="Group 204" transform="translate(21.672)">
                <path id="Path_72" data-name="Path 72" d="M298.042,654.588h8.006a1.49,1.49,0,1,0,0-2.979h-8.006a1.49,1.49,0,0,0,0,2.979Z" transform="translate(-296.553 -651.609)" fill="#444445"/>
              </g>
            </g>
          </g>
        </g>
        <path id="Path_73" data-name="Path 73" d="M863.357,529.542H828.48v26.987h36.456Z" transform="translate(-510.498 -106.456)" fill="#fcfbe6" opacity="0.5"/>
        <path id="Path_74" data-name="Path 74" d="M696.818,590.17l-7.334,17.42a4.054,4.054,0,0,0,3.706,5.627l39.1.3a4.054,4.054,0,0,0,4.085-4.054V592.052A4.054,4.054,0,0,0,732.36,588l-31.766-.309A4.054,4.054,0,0,0,696.818,590.17Z" transform="translate(-419.366 -144.492)" fill="#ededed" opacity="0.19"/>
        <path id="Path_75" data-name="Path 75" d="M704.736,513.066H626.45l-13.7,32.539-13.674-7.311-17.134,14.778-5.406,40.006H709.42ZM583.294,553.288l9.282-7.253,11.913,7.4Zm80.383-7.536h-44.09l11.361-26.987h67.605l1.58,26.987Z" transform="translate(-345.695 -95.679)" fill="#d99b39"/>
        <g id="Group_264" data-name="Group 264" transform="translate(237.622 507.854)" opacity="0.54" style="mix-blend-mode: multiply;isolation: isolate">
          <g id="Group_221" data-name="Group 221" transform="translate(50.826 0)">
            <g id="Group_220" data-name="Group 220">
              <g id="Group_219" data-name="Group 219">
                <g id="Group_218" data-name="Group 218">
                  <g id="Group_217" data-name="Group 217">
                    <g id="Group_216" data-name="Group 216">
                      <g id="Group_215" data-name="Group 215">
                        <g id="Group_214" data-name="Group 214">
                          <g id="Group_213" data-name="Group 213">
                            <g id="Group_212" data-name="Group 212">
                              <g id="Group_211" data-name="Group 211">
                                <g id="Group_210" data-name="Group 210">
                                  <g id="Group_209" data-name="Group 209">
                                    <g id="Group_208" data-name="Group 208">
                                      <path id="Path_76" data-name="Path 76" d="M743.911,777.343h48.64c.451,0,.82-.611.82-1.358h0c0-.746-.369-1.357-.82-1.357h-48.64c-.451,0-.82.611-.82,1.357h0C743.091,776.732,743.46,777.343,743.911,777.343Z" transform="translate(-743.091 -774.628)" fill="#717171"/>
                                    </g>
                                  </g>
                                </g>
                              </g>
                            </g>
                          </g>
                        </g>
                      </g>
                    </g>
                  </g>
                </g>
              </g>
            </g>
          </g>
          <g id="Group_235" data-name="Group 235" transform="translate(46.236 0)" opacity="0.48">
            <g id="Group_234" data-name="Group 234">
              <g id="Group_233" data-name="Group 233">
                <g id="Group_232" data-name="Group 232">
                  <g id="Group_231" data-name="Group 231">
                    <g id="Group_230" data-name="Group 230">
                      <g id="Group_229" data-name="Group 229">
                        <g id="Group_228" data-name="Group 228">
                          <g id="Group_227" data-name="Group 227">
                            <g id="Group_226" data-name="Group 226">
                              <g id="Group_225" data-name="Group 225">
                                <g id="Group_224" data-name="Group 224">
                                  <g id="Group_223" data-name="Group 223">
                                    <g id="Group_222" data-name="Group 222">
                                      <path id="Path_77" data-name="Path 77" d="M730.638,777.343h1.2c.451,0,.82-.611.82-1.358h0c0-.746-.369-1.357-.82-1.357h-1.2c-.451,0-.82.611-.82,1.357h0C729.818,776.732,730.187,777.343,730.638,777.343Z" transform="translate(-729.818 -774.628)" fill="#717171"/>
                                    </g>
                                  </g>
                                </g>
                              </g>
                            </g>
                          </g>
                        </g>
                      </g>
                    </g>
                  </g>
                </g>
              </g>
            </g>
          </g>
          <g id="Group_249" data-name="Group 249" transform="translate(5.356 7.058)">
            <g id="Group_248" data-name="Group 248">
              <g id="Group_247" data-name="Group 247">
                <g id="Group_246" data-name="Group 246">
                  <g id="Group_245" data-name="Group 245">
                    <g id="Group_244" data-name="Group 244">
                      <g id="Group_243" data-name="Group 243">
                        <g id="Group_242" data-name="Group 242">
                          <g id="Group_241" data-name="Group 241">
                            <g id="Group_240" data-name="Group 240">
                              <g id="Group_239" data-name="Group 239">
                                <g id="Group_238" data-name="Group 238">
                                  <g id="Group_237" data-name="Group 237">
                                    <g id="Group_236" data-name="Group 236">
                                      <path id="Path_78" data-name="Path 78" d="M612.5,797.93h47.328c.481,0,.874-.651.874-1.448h0c0-.8-.394-1.448-.874-1.448H612.5c-.481,0-.875.652-.875,1.448h0C611.625,797.278,612.019,797.93,612.5,797.93Z" transform="translate(-611.625 -795.034)" fill="#717171"/>
                                    </g>
                                  </g>
                                </g>
                              </g>
                            </g>
                          </g>
                        </g>
                      </g>
                    </g>
                  </g>
                </g>
              </g>
            </g>
          </g>
          <g id="Group_263" data-name="Group 263" transform="translate(0 7.058)">
            <g id="Group_262" data-name="Group 262">
              <g id="Group_261" data-name="Group 261">
                <g id="Group_260" data-name="Group 260">
                  <g id="Group_259" data-name="Group 259">
                    <g id="Group_258" data-name="Group 258">
                      <g id="Group_257" data-name="Group 257">
                        <g id="Group_256" data-name="Group 256">
                          <g id="Group_255" data-name="Group 255">
                            <g id="Group_254" data-name="Group 254">
                              <g id="Group_253" data-name="Group 253">
                                <g id="Group_252" data-name="Group 252">
                                  <g id="Group_251" data-name="Group 251">
                                    <g id="Group_250" data-name="Group 250">
                                      <path id="Path_79" data-name="Path 79" d="M597.014,797.93H599.2c.481,0,.874-.651.874-1.448h0c0-.8-.394-1.448-.874-1.448h-2.186c-.481,0-.874.652-.874,1.448h0C596.14,797.278,596.534,797.93,597.014,797.93Z" transform="translate(-596.14 -795.034)" fill="#717171"/>
                                    </g>
                                  </g>
                                </g>
                              </g>
                            </g>
                          </g>
                        </g>
                      </g>
                    </g>
                  </g>
                </g>
              </g>
            </g>
          </g>
        </g>
        <g id="Group_266" data-name="Group 266" transform="translate(244.238 446.41)">
          <g id="Group_265" data-name="Group 265" transform="translate(0 0)">
            <path id="Path_80" data-name="Path 80" d="M620.469,603.483l11.792,7.328h8.957l-17.592-9.921-4.447,3.6Z" transform="translate(-617.826 -599.538)" fill="#d99b39"/>
            <path id="Path_81" data-name="Path 81" d="M638.659,609.606H629.7a1.349,1.349,0,0,1-.714-.2L618,602.573l-.545.426a1.353,1.353,0,0,1-1.685-2.117l4.447-3.6a1.354,1.354,0,0,1,1.516-.127l17.592,9.921a1.353,1.353,0,0,1-.664,2.531Zm-8.423-1.465H637.6l-15.5-9.081-2.794,2.606Z" transform="translate(-615.267 -596.98)" fill="#444445"/>
          </g>
        </g>
        <g id="Group_267" data-name="Group 267" transform="translate(234.272 466.222)">
          <path id="Path_82" data-name="Path 82" d="M598.729,657.018h-11.68c-.762,0-.577-.651-.577-1.413s-.185-1.346.577-1.346h11.68a1.38,1.38,0,1,1,0,2.759Z" transform="translate(-586.453 -654.259)" fill="#ededed"/>
        </g>
        <g id="Group_268" data-name="Group 268" transform="translate(233.84 471.852)">
          <path id="Path_83" data-name="Path 83" d="M592.074,673.3h-5.84c-.762,0-1.028-.645-1.028-1.407s.266-1.352,1.028-1.352h5.84a1.379,1.379,0,0,1,0,2.759Z" transform="translate(-585.206 -670.539)" fill="#b66c65"/>
        </g>
        <g id="Group_269" data-name="Group 269" transform="translate(348.935 464.869)">
          <path id="Path_84" data-name="Path 84" d="M931.033,653.107h-11.68a1.38,1.38,0,0,1,0-2.759h11.68a1.38,1.38,0,1,1,0,2.759Z" transform="translate(-917.973 -650.348)" fill="#ededed"/>
        </g>
        <g id="Group_270" data-name="Group 270" transform="translate(354.775 470.5)">
          <path id="Path_85" data-name="Path 85" d="M942.077,669.387h-5.84a1.38,1.38,0,0,1,0-2.759h5.84a1.38,1.38,0,1,1,0,2.759Z" transform="translate(-934.858 -666.628)" fill="#b66c65"/>
        </g>
        <g id="Group_271" data-name="Group 271" transform="translate(225.632 496.001)">
          <rect id="Rectangle_358" data-name="Rectangle 358" width="17.761" height="4.675" transform="translate(1.38 1.379)" fill="#6d6d6d"/>
          <path id="Path_86" data-name="Path 86" d="M580.614,747.792H562.853a1.38,1.38,0,0,1-1.38-1.38v-4.675a1.38,1.38,0,0,1,1.38-1.38h17.761a1.38,1.38,0,0,1,1.38,1.38v4.675A1.38,1.38,0,0,1,580.614,747.792Zm-16.381-2.759h15v-1.916h-15Z" transform="translate(-561.473 -740.358)" fill="#444445"/>
        </g>
        <g id="Group_272" data-name="Group 272" transform="translate(348.665 496.078)">
          <rect id="Rectangle_359" data-name="Rectangle 359" width="17.761" height="4.675" transform="translate(1.379 1.379)" fill="#6d6d6d"/>
          <path id="Path_87" data-name="Path 87" d="M936.331,748.014H918.569a1.38,1.38,0,0,1-1.379-1.38v-4.675a1.38,1.38,0,0,1,1.379-1.379h17.761a1.38,1.38,0,0,1,1.379,1.379v4.675A1.38,1.38,0,0,1,936.331,748.014Zm-16.381-2.759h15v-1.916h-15Z" transform="translate(-917.19 -740.58)" fill="#444445"/>
        </g>
        <g id="Group_273" data-name="Group 273" transform="translate(337.487 430.448)">
          <path id="Path_88" data-name="Path 88" d="M900.756,553.588h-14.5a1.38,1.38,0,1,1,0-2.759h14.5a1.38,1.38,0,0,1,0,2.759Z" transform="translate(-884.872 -550.829)" fill="#fff"/>
        </g>
        <g id="Group_274" data-name="Group 274" transform="translate(329.061 438.598)">
          <path id="Path_89" data-name="Path 89" d="M867.582,577.152h-5.69a1.38,1.38,0,1,1,0-2.759h5.69a1.38,1.38,0,0,1,0,2.759Z" transform="translate(-860.512 -574.393)" fill="#fff"/>
        </g>
        <path id="Path_90" data-name="Path 90" d="M778.942,555.3H698.4a1.379,1.379,0,0,1-1.271-1.914L708.485,526.4a1.38,1.38,0,0,1,1.271-.844h67.606a1.379,1.379,0,0,1,1.377,1.3l1.58,26.987a1.379,1.379,0,0,1-1.377,1.46Zm-78.469-2.759h77.006l-1.418-24.228H710.673Z" transform="translate(-424.503 -103.847)" fill="#444445"/>
        <g id="Group_275" data-name="Group 275" transform="translate(359.39 444.781)">
          <path id="Path_91" data-name="Path 91" d="M954.1,623.182h0l-1.908-26.925h0a9.979,9.979,0,0,1,9.954,9.273l.594,8.378A8.661,8.661,0,0,1,954.1,623.182Z" transform="translate(-950.809 -594.877)" fill="#6d6d6d"/>
          <path id="Path_92" data-name="Path 92" d="M951.487,621.953a1.38,1.38,0,0,1-1.376-1.282L948.2,593.745a1.38,1.38,0,0,1,1.376-1.477,11.4,11.4,0,0,1,11.329,10.556l.594,8.378a10.041,10.041,0,0,1-10.016,10.751Zm-.418-26.795,1.7,23.926a7.289,7.289,0,0,0,5.986-7.687l-.593-8.378A8.636,8.636,0,0,0,951.07,595.158Z" transform="translate(-948.2 -592.268)" fill="#444445"/>
        </g>
        <g id="Group_276" data-name="Group 276" transform="translate(316.897 421.706)">
          <path id="Path_93" data-name="Path 93" d="M826.723,602.625a1.38,1.38,0,0,1-1.379-1.38V526.933a1.38,1.38,0,1,1,2.759,0v74.313A1.38,1.38,0,0,1,826.723,602.625Z" transform="translate(-825.344 -525.553)" fill="#444445"/>
        </g>
        <g id="Group_279" data-name="Group 279" transform="translate(298.191 458.244)">
          <g id="Group_277" data-name="Group 277">
            <path id="Path_94" data-name="Path 94" d="M785.055,633.952H772.639a1.38,1.38,0,0,1,0-2.759h12.416a1.38,1.38,0,0,1,0,2.759Z" transform="translate(-771.26 -631.193)" fill="#444445"/>
          </g>
          <g id="Group_278" data-name="Group 278" transform="translate(24.997)">
            <path id="Path_95" data-name="Path 95" d="M857.327,633.952H844.911a1.38,1.38,0,0,1,0-2.759h12.416a1.38,1.38,0,1,1,0,2.759Z" transform="translate(-843.532 -631.193)" fill="#444445"/>
          </g>
        </g>
        <g id="Group_280" data-name="Group 280" transform="translate(230.596 474.005)">
          <path id="Path_96" data-name="Path 96" d="M583.217,693.2h-.012l-6.011-.051a1.38,1.38,0,0,1-1.367-1.391,1.408,1.408,0,0,1,1.391-1.368l4.964.042a19.656,19.656,0,0,1,37.428-.042h48.663a19.656,19.656,0,0,1,37.414,0h2.78a1.38,1.38,0,0,1,0,2.759h-3.814a1.38,1.38,0,0,1-1.334-1.03,16.9,16.9,0,0,0-32.677,0,1.379,1.379,0,0,1-1.334,1.03H618.576a1.379,1.379,0,0,1-1.334-1.03,16.9,16.9,0,0,0-32.69.047A1.379,1.379,0,0,1,583.217,693.2Z" transform="translate(-575.827 -676.764)" fill="#444445"/>
        </g>
        <path id="Path_97" data-name="Path 97" d="M706.861,591.872H573.979a1.352,1.352,0,0,1-1.341-1.534l5.406-40.006a1.349,1.349,0,0,1,.457-.843l17.135-14.779a1.351,1.351,0,0,1,1.521-.169l12.365,6.612,13.123-31.171a1.353,1.353,0,0,1,1.247-.828h78.287a1.353,1.353,0,0,1,1.351,1.273l4.683,80.011a1.353,1.353,0,0,1-1.351,1.432Zm-131.335-2.706h129.9L700.9,511.861H624.79l-13.35,31.711a1.353,1.353,0,0,1-1.885.668L596.7,537.366l-5.141,5.434,11.086,6.93a1.353,1.353,0,0,1-.714,2.5h-.01l-21.195-.15a1.378,1.378,0,0,1-.186-.014Zm9.1-39.762,12.506.089-7.03-4.368Z" transform="translate(-343.136 -93.121)" fill="#444445"/>
        <g id="Group_283" data-name="Group 283" transform="translate(240.043 479.38)">
          <g id="Group_281" data-name="Group 281" transform="translate(0 0)">
            <circle id="Ellipse_15" data-name="Ellipse 15" cx="12.688" cy="12.688" r="12.688" transform="translate(0 24.445) rotate(-74.424)" fill="#6d6d6d"/>
            <path id="Path_98" data-name="Path 98" d="M621.723,724.955a14.068,14.068,0,1,1,14.068-14.068A14.084,14.084,0,0,1,621.723,724.955Zm0-25.377a11.309,11.309,0,1,0,11.309,11.309A11.321,11.321,0,0,0,621.723,699.578Z" transform="translate(-606.094 -695.257)" fill="#444445"/>
          </g>
          <g id="Group_282" data-name="Group 282" transform="translate(8.504 8.504)">
            <path id="Path_99" data-name="Path 99" d="M643.208,726.626a5.746,5.746,0,1,1-5.746-5.746A5.746,5.746,0,0,1,643.208,726.626Z" transform="translate(-630.337 -719.501)" fill="#ededed"/>
            <path id="Path_100" data-name="Path 100" d="M634.853,731.143a7.125,7.125,0,1,1,7.126-7.126A7.134,7.134,0,0,1,634.853,731.143Zm0-11.492a4.366,4.366,0,1,0,4.367,4.366A4.371,4.371,0,0,0,634.853,719.651Z" transform="translate(-627.728 -716.892)" fill="#444445"/>
          </g>
        </g>
        <g id="Group_286" data-name="Group 286" transform="translate(326.474 479.734)">
          <g id="Group_284" data-name="Group 284" transform="translate(0 0)">
            <circle id="Ellipse_16" data-name="Ellipse 16" cx="12.688" cy="12.688" r="12.688" transform="translate(0 24.691) rotate(-76.646)" fill="#6d6d6d"/>
            <path id="Path_101" data-name="Path 101" d="M870.591,724.955a14.068,14.068,0,1,1,14.068-14.068A14.084,14.084,0,0,1,870.591,724.955Zm0-25.377A11.309,11.309,0,1,0,881.9,710.887,11.322,11.322,0,0,0,870.591,699.578Z" transform="translate(-855.315 -695.611)" fill="#444445"/>
          </g>
          <g id="Group_285" data-name="Group 285" transform="translate(8.15 8.151)">
            <path id="Path_102" data-name="Path 102" d="M892.077,726.626a5.746,5.746,0,1,1-5.746-5.746A5.746,5.746,0,0,1,892.077,726.626Z" transform="translate(-879.205 -719.501)" fill="#ededed"/>
            <path id="Path_103" data-name="Path 103" d="M883.722,731.143a7.125,7.125,0,1,1,7.125-7.126A7.134,7.134,0,0,1,883.722,731.143Zm0-11.492a4.366,4.366,0,1,0,4.366,4.366A4.371,4.371,0,0,0,883.722,719.651Z" transform="translate(-876.596 -716.892)" fill="#444445"/>
          </g>
        </g>
      </g>
    </g>
  </g>
</svg>
