<svg viewBox="0 -64 496 496" xmlns="http://www.w3.org/2000/svg">
    <path d="m64 0h368v24h-368zm0 0" fill="#ccd1d9" />
    <path d="m456 24v24h-416v-24zm0 0" fill="#e6e9ed" />
    <path d="m496 320v40c0 4.40625-3.601562 8-8 8h-480c-4.398438 0-8-3.59375-8-8v-40zm0 0" fill="#656d78" />
    <path d="m169.28125 202.871094c18.238281 6 32.320312 21.050781 36.957031 39.839844-14.238281 13.210937-33.277343 21.289062-54.238281 21.289062-21.039062 0-40.238281-8.160156-54.480469-21.511719 4.632813-18.71875 18.71875-33.6875 37.039063-39.6875h.082031c5.039063 3.277344 10.960937 5.199219 17.359375 5.199219 6.320312 0 12.238281-1.839844 17.28125-5.128906zm0 0" fill="#5d9cec" />
    <path d="m152 104c44.160156 0 80 35.769531 80 80 0 23.199219-9.921875 44.160156-25.761719 58.71875-4.636719-18.796875-18.71875-33.839844-36.957031-39.839844 8.878906-5.679687 14.71875-15.597656 14.71875-26.878906 0-17.679688-14.320312-32-32-32s-32 14.320312-32 32c0 11.199219 5.761719 21.039062 14.558594 26.800781-18.320313 6-32.40625 20.96875-37.039063 39.6875-15.679687-14.566406-25.519531-35.359375-25.519531-58.488281 0-44.230469 35.839844-80 80-80zm0 0" fill="#656d78" />
    <path d="m480 48v272h-464v-272zm-248 136c0-44.230469-35.839844-80-80-80s-80 35.769531-80 80c0 23.128906 9.839844 43.921875 25.519531 58.488281 14.242188 13.351563 33.441407 21.511719 54.480469 21.511719 20.960938 0 40-8.078125 54.238281-21.28125 15.839844-14.558594 25.761719-35.519531 25.761719-58.71875zm0 0" fill="#f5f7fa" />
    <path d="m151.976562 104c-5.496093 0-10.855468.558594-16.046874 1.617188 36.496093 7.429687 63.949218 39.695312 63.949218 78.382812 0 12.015625-2.65625 23.40625-7.40625 33.632812 6.535156 6.894532 11.351563 15.4375 13.726563 24.96875.480469-.441406.96875-.847656 1.441406-1.304687.640625-.617187 1.246094-1.265625 1.863281-1.90625 1.28125-1.328125 2.535156-2.679687 3.726563-4.09375.34375-.410156.664062-.832031 1-1.242187 1.355469-1.6875 2.664062-3.40625 3.882812-5.191407.101563-.160156.199219-.328125.3125-.488281 8.484375-12.703125 13.453125-27.960938 13.453125-44.375 0-44.160156-35.765625-79.945312-79.902344-80zm0 0" fill="#434a54" />
    <path d="m192.480469 217.632812c-10.527344 22.671876-31.367188 39.582032-56.496094 44.726563.167969.039063.320313.089844.488281.128906.742188.144531 1.503906.214844 2.253906.34375 1.777344.296875 3.554688.601563 5.371094.785157 1.621094.160156 3.285156.183593 4.941406.246093.96875.023438 1.921876.136719 2.898438.136719 2.734375-.007812 5.4375-.144531 8.09375-.414062.097656-.011719.183594-.035157.28125-.042969 2.558594-.261719 5.09375-.648438 7.582031-1.160157.273438-.054687.539063-.144531.816407-.199218 2.289062-.488282 4.546874-1.054688 6.761718-1.734375.375-.121094.742188-.265625 1.121094-.394531 2.078125-.671876 4.132812-1.40625 6.125-2.238282.457031-.183594.890625-.410156 1.335938-.609375 1.882812-.832031 3.738281-1.695312 5.53125-2.664062.519531-.269531 1.023437-.582031 1.527343-.871094 1.6875-.953125 3.34375-1.9375 4.941407-3 .5625-.375 1.105468-.777344 1.65625-1.167969 1.496093-1.046875 2.960937-2.136718 4.386718-3.28125.582032-.46875 1.160156-.964844 1.726563-1.460937.824219-.699219 1.589843-1.441407 2.382812-2.167969-2.375-9.523438-7.191406-18.066406-13.726562-24.960938zm0 0" fill="#4a89dc" />
    <path d="m152 136c22.105469 0 40 17.894531 40 40 0 14.105469-7.3125 26.503906-18.40625 33.59375-6.289062 4.09375-13.699219 6.40625-21.59375 6.40625-7.992188 0-15.398438-2.40625-21.703125-6.503906h-.097656c-11.007813-7.191406-18.199219-19.496094-18.199219-33.496094 0-22.105469 17.894531-40 40-40zm0 0" fill="#eac6bb" />
    <path d="m424 128h-144c-4.425781 0-8-3.574219-8-8s3.574219-8 8-8h144c4.425781 0 8 3.574219 8 8s-3.574219 8-8 8zm0 0" fill="#656d78" />
    <path d="m352 160h-72c-4.425781 0-8-3.574219-8-8s3.574219-8 8-8h72c4.425781 0 8 3.574219 8 8s-3.574219 8-8 8zm0 0" fill="#656d78" />
    <g fill="#ccd1d9">
        <path d="m424 224h-96c-4.425781 0-8-3.574219-8-8s3.574219-8 8-8h96c4.425781 0 8 3.574219 8 8s-3.574219 8-8 8zm0 0" />
        <path d="m296 224h-16c-4.425781 0-8-3.574219-8-8s3.574219-8 8-8h16c4.425781 0 8 3.574219 8 8s-3.574219 8-8 8zm0 0" />
        <path d="m424 256h-96c-4.425781 0-8-3.574219-8-8s3.574219-8 8-8h96c4.425781 0 8 3.574219 8 8s-3.574219 8-8 8zm0 0" />
        <path d="m296 256h-16c-4.425781 0-8-3.574219-8-8s3.574219-8 8-8h16c4.425781 0 8 3.574219 8 8s-3.574219 8-8 8zm0 0" />
    </g>
</svg>